<svg id="Layer_1" data-name="Layer 1" xmlns="http://www.w3.org/2000/svg" viewBox="0 0 188.29 124.78"><defs><style>.cls-1{fill:#fff;}</style></defs><path class="cls-1" d="M171.53,57.55c-7.38,19.82-23.8,69.05-30.39,87.12a7,7,0,0,1-.89,1.75h-22a2.72,2.72,0,0,1-.79-1.06c-8.8-24.62-17.41-62.47-26-87.81h19.95c5.46,15.88,10.77,37.39,16.14,52.65.43,1.18,1,2.32,1.84,4.35.93-2.21,1.59-3.58,2.11-5,3.24-8.71,15.21-40.32,19.87-52Z" transform="translate(-20.85 -57.55)"/><path class="cls-1" d="M209.14,57.55c-1.39,4.43-3,9.93-4.16,13.17-7.71,22-15.51,50.91-23.1,72.94a8.57,8.57,0,0,1-1.44,2.76H160.85c1.23-3.72,3-13.41,4.05-16.51C172.83,107.39,181,81,188.79,58.43c.12-.31.23-.61.34-.88Z" transform="translate(-20.85 -57.55)"/><path class="cls-1" d="M99.5,163.32a11,11,0,1,1-22-.44,11.11,11.11,0,0,1,11.06-10.75A11,11,0,0,1,99.5,163.32Z" transform="translate(-20.85 -57.55)"/><path class="cls-1" d="M181,163.32a11,11,0,1,1-22-.44A11.11,11.11,0,0,1,170,152.13,11,11,0,0,1,181,163.32Z" transform="translate(-20.85 -57.55)"/><path class="cls-1" d="M97.24,146.42H77.62a14.58,14.58,0,0,1-1.34-2.8c-6.18-17.39-12.37-41.75-18.37-59.2a43.07,43.07,0,0,0-2.53-5.94L53.59,75H35.66l-1.2-1.42-5.11-6-8.5-10H35.64c9.71,0,19.41,0,29.11,0,2.11,0,3.81,0,4.72,2.62C78.66,86.62,88,120,97.24,146.42Z" transform="translate(-20.85 -57.55)"/><rect class="cls-1" x="55.93" y="120.96" width="108.59" height="3.82"/></svg>