<svg id="Layer_1" data-name="Layer 1" xmlns="http://www.w3.org/2000/svg" viewBox="0 0 552.3 124.78"><defs><style>.cls-1{fill:#fff;}</style></defs><path class="cls-1" d="M289.8,139.86h-.7L268.93,95.48h10.79l10.08,23.38L300,95.48h10Z" transform="translate(-73.67 -61.37)"/><path class="cls-1" d="M313.54,138.24V95.48h10.21v42.76Z" transform="translate(-73.67 -61.37)"/><path class="cls-1" d="M333.71,138.24V95.48h26.34v8.82H343.62V112h14.07v8.76H343.62v8.46h16.66v9Z" transform="translate(-73.67 -61.37)"/><path class="cls-1" d="M380.45,139.62,362.58,95.48H372.9l8.32,23.06,8.93-24.45h.8l9,24.45,8.23-23.06h9.52l-17.75,44.14h-.65l-9.14-24.44-8.93,24.44Z" transform="translate(-73.67 -61.37)"/><path class="cls-1" d="M422.06,138.24V94.09h1l26.63,25V95.48h9.41v44.38h-.89l-26.71-25v23.33Z" transform="translate(-73.67 -61.37)"/><path class="cls-1" d="M466.91,126.15a37.24,37.24,0,0,0,6.71,3.39,16.08,16.08,0,0,0,5.38,1,7.14,7.14,0,0,0,4.26-1.16,3.57,3.57,0,0,0,1.61-3c0-1.74-1.91-3.71-5.72-5.89l-1.42-.83L474.84,118a18.11,18.11,0,0,1-6.25-5.4,11.82,11.82,0,0,1-2-6.81,10.57,10.57,0,0,1,3.89-8.46A15,15,0,0,1,480.5,94a24.76,24.76,0,0,1,4.93.53,45,45,0,0,1,5.9,1.65v10a34.41,34.41,0,0,0-5.87-3,13.63,13.63,0,0,0-4.72-1.07,5.5,5.5,0,0,0-3.39.93,3,3,0,0,0-1.24,2.52,3.43,3.43,0,0,0,.74,2.1,6.61,6.61,0,0,0,2.21,1.77l5,2.77q6.29,3.48,8.45,6.43a11.49,11.49,0,0,1,2.17,7,13,13,0,0,1-4.26,10.1q-4.26,3.84-11.31,3.84a28.91,28.91,0,0,1-5.19-.5,49,49,0,0,1-6.17-1.56Z" transform="translate(-73.67 -61.37)"/><path class="cls-1" d="M502.12,138.24V95.48H512.2v15.69h16.49V95.48h10v42.76h-10V120.31H512.2v17.93Z" transform="translate(-73.67 -61.37)"/><path class="cls-1" d="M545.91,116.86a24,24,0,0,1,1.63-8.89,22.5,22.5,0,0,1,4.82-7.42,20.82,20.82,0,0,1,7-4.79,21.61,21.61,0,0,1,23.8,4.85,21.22,21.22,0,0,1,4.73,7.3,24.54,24.54,0,0,1,1.61,9,24.8,24.8,0,0,1-1.12,7.55,21.42,21.42,0,0,1-3.33,6.46,21.87,21.87,0,0,1-7.68,6.45,21.39,21.39,0,0,1-18,.62,21.39,21.39,0,0,1-7-4.83,22.58,22.58,0,0,1-4.82-7.39A23.77,23.77,0,0,1,545.91,116.86Zm10.5,0a13.74,13.74,0,0,0,3.25,9.33,10.5,10.5,0,0,0,16.09,0,15.17,15.17,0,0,0,0-18.74,10.49,10.49,0,0,0-16.09,0A13.81,13.81,0,0,0,556.41,116.86Z" transform="translate(-73.67 -61.37)"/><path class="cls-1" d="M596.63,138.24V95.48h11a35,35,0,0,1,8,.74A14.46,14.46,0,0,1,621,98.69a12,12,0,0,1,3.71,4.35,12.23,12.23,0,0,1,1.31,5.53,12.61,12.61,0,0,1-4.62,10.29q-4.61,3.81-12.52,3.81l-1.23,0-.77,0v15.63Zm11.59-34.92h-1.39v11.42h1.86a9.94,9.94,0,0,0,5.9-1.49,5,5,0,0,0,2-4.29,4.8,4.8,0,0,0-2-4.28C613.28,103.78,611.14,103.32,608.22,103.32Z" transform="translate(-73.67 -61.37)"/><path class="cls-1" d="M393.12,151.84v8.09a3.11,3.11,0,0,1-.91,2.37,3.75,3.75,0,0,1-4.8,0,3.11,3.11,0,0,1-.91-2.37h1.86a1.87,1.87,0,0,0,.38,1.18,1.31,1.31,0,0,0,1.07.43,1.32,1.32,0,0,0,1.08-.44,1.76,1.76,0,0,0,.37-1.17v-8.09Z" transform="translate(-73.67 -61.37)"/><path class="cls-1" d="M398.35,162.44a5.49,5.49,0,0,1-2.09-2.05,5.81,5.81,0,0,1-.76-3,5.74,5.74,0,0,1,.76-2.95,5.46,5.46,0,0,1,2.09-2,5.77,5.77,0,0,1,2.88-.74,5.87,5.87,0,0,1,2.9.74,5.41,5.41,0,0,1,2.07,2,5.74,5.74,0,0,1,.76,2.95,5.81,5.81,0,0,1-.76,3,5.43,5.43,0,0,1-2.07,2.05,5.87,5.87,0,0,1-2.9.73A5.76,5.76,0,0,1,398.35,162.44Zm4.86-1.37a3.52,3.52,0,0,0,1.37-1.46,5.12,5.12,0,0,0,0-4.37,3.44,3.44,0,0,0-1.37-1.43,4.19,4.19,0,0,0-4,0,3.48,3.48,0,0,0-1.36,1.43,5,5,0,0,0,0,4.37,3.56,3.56,0,0,0,1.36,1.46,4.19,4.19,0,0,0,4,0Z" transform="translate(-73.67 -61.37)"/><path class="cls-1" d="M419.78,152.52a5,5,0,0,1,2.08,2,6,6,0,0,1,.73,3,5.79,5.79,0,0,1-.73,3,4.91,4.91,0,0,1-2.08,1.93,7,7,0,0,1-3.15.67H413V151.84h3.66A6.83,6.83,0,0,1,419.78,152.52Zm-.13,8a4.09,4.09,0,0,0,1.05-3,4.23,4.23,0,0,0-1.05-3.05,3.94,3.94,0,0,0-3-1.1h-1.82v8.22h1.82A4,4,0,0,0,419.65,160.49Z" transform="translate(-73.67 -61.37)"/><path class="cls-1" d="M426.26,153.32v3.3h3.87v1.5h-3.87v3.44h4.36v1.5h-6.2V151.82h6.2v1.5Z" transform="translate(-73.67 -61.37)"/><path class="cls-1" d="M441.84,151.84v11.22H440v-4.91h-5.28v4.91h-1.84V151.84h1.84v4.81H440v-4.81Z" transform="translate(-73.67 -61.37)"/><path class="cls-1" d="M450.45,163.06l-4.34-5v5h-1.85V151.84h1.85V157l4.36-5.12h2.3l-4.87,5.62,5,5.6Z" transform="translate(-73.67 -61.37)"/><path class="cls-1" d="M462.8,151.84,459.09,159v4.07h-1.84V159l-3.73-7.15h2.05l2.6,5.5,2.6-5.5Z" transform="translate(-73.67 -61.37)"/><path class="cls-1" d="M476.58,155.07a3,3,0,0,0-1.21-1.27,3.63,3.63,0,0,0-1.8-.43,3.94,3.94,0,0,0-2,.5,3.54,3.54,0,0,0-1.37,1.42,4.9,4.9,0,0,0,0,4.27,3.5,3.5,0,0,0,1.37,1.43,3.84,3.84,0,0,0,2,.5,3.5,3.5,0,0,0,2.44-.84,3.6,3.6,0,0,0,1.15-2.27h-4.22v-1.47h6.19v1.43a5.56,5.56,0,0,1-5.56,4.82,5.81,5.81,0,0,1-2.89-.74,5.48,5.48,0,0,1-2.07-2,6.06,6.06,0,0,1,0-5.91,5.43,5.43,0,0,1,2.08-2,6.1,6.1,0,0,1,6.07.14,5,5,0,0,1,2,2.5Z" transform="translate(-73.67 -61.37)"/><path class="cls-1" d="M487.7,160.77H483l-.8,2.29h-1.92l4-11.24h2.13l4,11.24h-1.94Zm-.51-1.5-1.83-5.22-1.84,5.22Z" transform="translate(-73.67 -61.37)"/><path class="cls-1" d="M511,151.84l-3.33,11.22H505.6l-2.36-8.49-2.5,8.49-2.07,0-3.18-11.24h1.95l2.33,9.14,2.52-9.14h2.06l2.34,9.09,2.35-9.09Z" transform="translate(-73.67 -61.37)"/><path class="cls-1" d="M514.76,162.44a5.46,5.46,0,0,1-2.08-2.05,5.82,5.82,0,0,1-.77-3,5.74,5.74,0,0,1,.77-2.95,5.43,5.43,0,0,1,2.08-2,6,6,0,0,1,5.78,0,5.43,5.43,0,0,1,2.08,2,5.84,5.84,0,0,1,.76,2.95,5.91,5.91,0,0,1-.76,3,5.46,5.46,0,0,1-2.08,2.05,6.09,6.09,0,0,1-5.78,0Zm4.87-1.37a3.49,3.49,0,0,0,1.36-1.46,5,5,0,0,0,0-4.37,3.42,3.42,0,0,0-1.36-1.43,4.19,4.19,0,0,0-4,0,3.5,3.5,0,0,0-1.37,1.43,5.12,5.12,0,0,0,0,4.37,3.58,3.58,0,0,0,1.37,1.46,4.19,4.19,0,0,0,4,0Z" transform="translate(-73.67 -61.37)"/><path class="cls-1" d="M534.15,151.84v11.22h-1.84v-4.91H527v4.91h-1.85V151.84H527v4.81h5.28v-4.81Z" transform="translate(-73.67 -61.37)"/><path class="cls-1" d="M548.31,158.25a2.79,2.79,0,0,1,.63,1.79,2.82,2.82,0,0,1-.44,1.54,3,3,0,0,1-1.29,1.08,4.44,4.44,0,0,1-2,.4h-4.49V151.84h4.28a4.74,4.74,0,0,1,2,.38,2.88,2.88,0,0,1,1.24,1.05,2.62,2.62,0,0,1,.42,1.46,2.47,2.47,0,0,1-.52,1.61,2.93,2.93,0,0,1-1.38.95A2.49,2.49,0,0,1,548.31,158.25Zm-5.7-1.7h2.28a2.21,2.21,0,0,0,1.41-.41,1.43,1.43,0,0,0,.51-1.19,1.45,1.45,0,0,0-.51-1.18,2.1,2.1,0,0,0-1.41-.43h-2.28Zm3.95,4.56a1.58,1.58,0,0,0,.54-1.26,1.63,1.63,0,0,0-.57-1.31,2.22,2.22,0,0,0-1.5-.49h-2.42v3.51h2.49A2.18,2.18,0,0,0,546.56,161.11Z" transform="translate(-73.67 -61.37)"/><path class="cls-1" d="M552.78,151.84v11.22h-1.84V151.84Z" transform="translate(-73.67 -61.37)"/><path class="cls-1" d="M561.39,163.06l-4.34-5v5H555.2V151.84h1.85V157l4.36-5.12h2.3l-4.87,5.62,4.95,5.6Z" transform="translate(-73.67 -61.37)"/><path class="cls-1" d="M572.19,160.77h-4.7l-.8,2.29h-1.93l4-11.24h2.14l4,11.24H573Zm-.51-1.5-1.83-5.22L568,159.27Z" transform="translate(-73.67 -61.37)"/><path class="cls-1" d="M582.87,163.06l-4.35-5v5h-1.84V151.84h1.84V157l4.36-5.12h2.31l-4.87,5.62,4.95,5.6Z" transform="translate(-73.67 -61.37)"/><path class="cls-1" d="M595.22,151.84,591.51,159v4.07h-1.85V159l-3.73-7.15H588l2.6,5.5,2.6-5.5Z" transform="translate(-73.67 -61.37)"/><path class="cls-1" d="M609,155.07a3,3,0,0,0-1.22-1.27,3.57,3.57,0,0,0-1.79-.43,4,4,0,0,0-2,.5,3.51,3.51,0,0,0-1.36,1.42,4.9,4.9,0,0,0,0,4.27A3.48,3.48,0,0,0,604,161a3.9,3.9,0,0,0,2,.5,3.51,3.51,0,0,0,2.44-.84,3.65,3.65,0,0,0,1.15-2.27h-4.22v-1.47h6.19v1.43a5.52,5.52,0,0,1-.93,2.41,5.58,5.58,0,0,1-4.63,2.41,5.81,5.81,0,0,1-2.89-.74,5.48,5.48,0,0,1-2.07-2,6.06,6.06,0,0,1,0-5.91,5.43,5.43,0,0,1,2.08-2,6.1,6.1,0,0,1,6.07.14,5,5,0,0,1,2,2.5Z" transform="translate(-73.67 -61.37)"/><path class="cls-1" d="M620.12,160.77h-4.7l-.81,2.29h-1.92l4-11.24h2.14l4,11.24h-1.94Zm-.52-1.5-1.82-5.22-1.84,5.22Z" transform="translate(-73.67 -61.37)"/><rect class="cls-1" x="198.85" y="95.08" width="107.81" height="2.5"/><path class="cls-1" d="M224.35,61.37c-7.38,19.82-23.8,69-30.39,87.12a7.22,7.22,0,0,1-.89,1.76H171a2.75,2.75,0,0,1-.79-1.07c-8.8-24.61-17.41-62.47-26-87.81h19.95c5.46,15.88,10.77,37.39,16.14,52.65.42,1.18,1,2.32,1.84,4.36.93-2.21,1.59-3.59,2.11-5,3.24-8.72,15.21-40.33,19.86-52Z" transform="translate(-73.67 -61.37)"/><path class="cls-1" d="M262,61.37c-1.39,4.43-3,9.93-4.16,13.18-7.71,22-15.51,50.9-23.1,72.94a8.88,8.88,0,0,1-1.44,2.76H213.67c1.23-3.73,3-13.41,4.05-16.52,7.93-22.52,16.09-48.91,23.89-71.47l.34-.89Z" transform="translate(-73.67 -61.37)"/><path class="cls-1" d="M152.32,167.15a11,11,0,1,1-22-.44A11.1,11.1,0,0,1,141.33,156,11,11,0,0,1,152.32,167.15Z" transform="translate(-73.67 -61.37)"/><path class="cls-1" d="M233.77,167.15a11,11,0,1,1-22.05-.44A11.1,11.1,0,0,1,222.78,156,11,11,0,0,1,233.77,167.15Z" transform="translate(-73.67 -61.37)"/><path class="cls-1" d="M150.06,150.25H130.44a14.66,14.66,0,0,1-1.34-2.81c-6.18-17.38-12.37-41.74-18.37-59.2a43,43,0,0,0-2.53-5.93l-1.79-3.46H88.48l-1.2-1.42-5.11-6-8.5-10H88.46c9.71,0,19.41,0,29.11,0,2.11,0,3.81,0,4.72,2.62C131.48,90.44,140.78,123.82,150.06,150.25Z" transform="translate(-73.67 -61.37)"/><rect class="cls-1" x="55.93" y="120.96" width="108.59" height="3.82"/></svg>