<svg id="Layer_1" enable-background="new 0 0 512 512" height="512" viewBox="0 0 512 512" width="512" xmlns="http://www.w3.org/2000/svg"><path d="m473.688 301.998-39.021-67.584c-.91-1.577-2.332-2.796-4.029-3.456l-82.387-32.034c2.564-8.655 3.948-17.812 3.948-27.287 0-53.045-43.155-96.2-96.2-96.2s-96.2 43.155-96.2 96.2c0 9.476 1.384 18.632 3.948 27.287l-82.387 32.034c-1.697.66-3.119 1.879-4.029 3.456l-39.021 67.584c-1.167 2.021-1.393 4.452-.618 6.654.774 2.202 2.472 3.956 4.647 4.802l33.919 13.189v110.08c0 3.299 2.026 6.26 5.102 7.456l171.739 66.777c.933.363 1.916.544 2.899.544s1.967-.181 2.899-.544l171.739-66.777c3.076-1.196 5.102-4.157 5.102-7.456v-110.08l33.919-13.189c2.176-.846 3.873-2.6 4.647-4.802.777-2.202.551-4.632-.616-6.654zm-217.688-210.561c44.223 0 80.2 35.978 80.2 80.2s-35.978 80.2-80.2 80.2-80.2-35.978-80.2-80.2 35.977-80.2 80.2-80.2zm0 176.4c38.118 0 71.129-22.285 86.689-54.511l63.135 25.026-149.824 58.256-149.825-58.256 63.135-25.026c15.56 32.226 48.571 54.511 86.69 54.511zm-199.169 34.084 30.926-53.564 156.651 60.911-30.926 53.565zm35.429 30.943 121.821 47.368c3.679 1.429 7.853-.037 9.827-3.456l24.092-41.728v156.758l-155.74-60.556zm327.48 98.386-155.74 60.556v-156.758l24.092 41.729c1.975 3.419 6.148 4.886 9.827 3.456l121.821-47.368zm-121.222-68.417-30.927-53.565 156.652-60.911 30.926 53.564zm-62.423-139.23c5.538 0 10.75-2.162 14.675-6.087l62.364-62.363c8.103-8.104 8.103-21.29-.001-29.396-3.925-3.925-9.145-6.087-14.696-6.087s-10.771 2.162-14.697 6.087l-45.906 45.907-12.252-15.417c-3.962-4.984-9.889-7.843-16.26-7.843-4.667 0-9.252 1.602-12.912 4.51-8.96 7.125-10.454 20.211-3.332 29.17l26.103 32.848c3.902 5.436 10.204 8.672 16.914 8.671zm-29.73-58.165c1.076-.855 2.201-1.035 2.956-1.035 1.465 0 2.826.656 3.734 1.798l17.83 22.438c1.419 1.785 3.531 2.88 5.808 3.01 2.271.127 4.5-.718 6.112-2.33l52.247-52.248c.903-.904 2.105-1.401 3.384-1.401s2.479.498 3.382 1.4c1.866 1.867 1.867 4.904.001 6.77l-62.363 62.363c-1.158 1.157-2.468 1.4-3.363 1.4-1.601 0-3.042-.75-3.955-2.057-.095-.136-.193-.268-.296-.397l-26.239-33.02c-1.634-2.055-1.291-5.057.762-6.691zm41.635-119.469v-37.469c0-4.418 3.581-8 8-8 4.418 0 8 3.582 8 8v37.469c0 4.418-3.582 8-8 8-4.419 0-8-3.582-8-8zm-80.779-12.666c-2.209-3.826-.897-8.719 2.929-10.928 3.825-2.208 8.719-.898 10.928 2.928l18.734 32.449c2.209 3.826.898 8.719-2.928 10.928-1.26.727-2.636 1.073-3.993 1.073-2.765 0-5.453-1.435-6.936-4.001zm-60.483 50.942c2.209-3.827 7.102-5.138 10.928-2.928l32.449 18.734c3.826 2.209 5.137 7.102 2.928 10.928-1.481 2.566-4.171 4.001-6.936 4.001-1.357 0-2.732-.346-3.992-1.073l-32.449-18.734c-3.826-2.209-5.137-7.102-2.928-10.928zm-23.98 85.286c0-4.418 3.581-8 8-8h37.468c4.419 0 8 3.582 8 8s-3.581 8-8 8h-37.468c-4.419 0-8-3.581-8-8zm228.866-109.674 18.734-32.449c2.209-3.827 7.102-5.139 10.928-2.928 3.826 2.209 5.138 7.102 2.929 10.928l-18.735 32.449c-1.482 2.566-4.171 4.001-6.936 4.001-1.357 0-2.733-.346-3.993-1.073-3.825-2.208-5.136-7.101-2.927-10.928zm45.228 54.769c-2.209-3.826-.898-8.719 2.928-10.928l32.449-18.734c3.826-2.208 8.719-.897 10.928 2.928 2.209 3.826.898 8.719-2.928 10.928l-32.449 18.734c-1.26.727-2.635 1.073-3.992 1.073-2.766 0-5.455-1.435-6.936-4.001zm22.711 51.116h37.468c4.419 0 8 3.582 8 8s-3.581 8-8 8h-37.468c-4.419 0-8-3.582-8-8s3.582-8 8-8z"/></svg>