<svg id="Layer_1" enable-background="new 0 0 48 48" height="512" viewBox="0 0 48 48" width="512" xmlns="http://www.w3.org/2000/svg"><g><path d="m7.654 21.082 1.648.854h10.614c.848 0 1.542-.692 1.542-1.538 0-.854-.694-1.538-1.542-1.538h.428c.848 0 1.542-.692 1.542-1.538 0-.854-.694-1.546-1.542-1.546h.428c.848 0 1.542-.683 1.542-1.538 0-.846-.694-1.538-1.542-1.538h.857c.848 0 1.542-.683 1.542-1.538 0-.846-.694-1.538-1.542-1.538h-7.144l.779-3.844c.103-.495.077-.999-.068-1.486l-.548-1.803c-.317-1.034-1.276-1.743-2.356-1.743-.514 0-.934.419-.934.931v3.041l-2.424 4.906-1.28 1.281" style="fill:none;stroke:#232f45;stroke-width:1.5;stroke-linecap:round;stroke-linejoin:round;stroke-miterlimit:10"/><path d="m2.79 23.16h3.99c.483 0 .874-.391.874-.874v-12.506c0-.483-.391-.874-.874-.874h-3.99c-.483 0-.874.391-.874.874v12.506c0 .483.391.874.874.874z" fill="#ff6261"/><path d="m42.538 43.069h-5.49v-23.132c0-.483.391-.874.874-.874h3.742c.483 0 .874.391.874.874z" style="fill:none;stroke:#232f45;stroke-width:1.5;stroke-linecap:round;stroke-linejoin:round;stroke-miterlimit:10"/><path d="m32.955 43.069h-5.49v-18.644c0-.483.391-.874.874-.874h3.742c.483 0 .874.391.874.874z" fill="#ff6261"/><path d="m23.371 43.069h-5.49v-15.387c0-.483.391-.874.874-.874h3.742c.483 0 .874.391.874.874z" style="fill:none;stroke:#232f45;stroke-width:1.5;stroke-linecap:round;stroke-linejoin:round;stroke-miterlimit:10"/><path d="m13.788 43.069h-5.49v-11.011c0-.483.391-.874.874-.874h3.742c.483 0 .874.391.874.874z" fill="#63c6ef"/><path d="m6.359 43.069h38.118c.473 0 .857.382.857.854v2.472c0 .472-.383.854-.857.854h-38.118c-.473 0-.857-.382-.857-.854v-2.472c.001-.471.384-.854.857-.854z" style="fill:none;stroke:#232f45;stroke-width:1.5;stroke-linecap:round;stroke-linejoin:round;stroke-miterlimit:10"/></g></svg>