<?xml version="1.0" encoding="iso-8859-1"?>
<!-- Generator: Adobe Illustrator 19.0.0, SVG Export Plug-In . SVG Version: 6.00 Build 0)  -->
<svg version="1.1" id="Capa_1" xmlns="http://www.w3.org/2000/svg" xmlns:xlink="http://www.w3.org/1999/xlink" x="0px" y="0px"
	 viewBox="0 0 512.002 512.002" style="enable-background:new 0 0 512.002 512.002;" xml:space="preserve">
<rect x="7.5" y="474.501" style="fill:#F8D77E;" width="497" height="30"/>
<rect x="474.5" y="474.501" style="fill:#F7B357;" width="30" height="30"/>
<rect x="32.5" y="220.961" style="fill:#735D65;" width="447" height="253.54"/>
<rect x="449.5" y="220.961" style="fill:#614E55;" width="30" height="253.54"/>
<rect x="62.5" y="286.951" style="fill:#C0E8F4;" width="387" height="157.55"/>
<path style="fill:#FF5948;" d="M78.431,220.956H7.5v-61.005c0-13.255,10.745-24,24-24h46.931V220.956z"/>
<rect x="78.51" y="135.951" style="fill:#C0E8F4;" width="70.931" height="85"/>
<rect x="149.52" y="135.951" style="fill:#FF5948;" width="70.931" height="85"/>
<rect x="220.53" y="135.951" style="fill:#C0E8F4;" width="70.931" height="85"/>
<rect x="291.55" y="135.951" style="fill:#FF5948;" width="70.931" height="85"/>
<rect x="362.56" y="135.951" style="fill:#C0E8F4;" width="70.931" height="85"/>
<path style="fill:#FF5948;" d="M504.5,220.956h-70.931v-85.005H480.5c13.255,0,24,10.745,24,24V220.956z"/>
<path style="fill:#BD3E33;" d="M480.5,135.951h-30c13.255,0,24,10.745,24,24v61.005h30v-61.005
	C504.5,146.696,493.755,135.951,480.5,135.951z"/>
<rect x="51.984" y="7.501" style="fill:#F8D77E;" width="410" height="128.45"/>
<rect x="431.98" y="7.501" style="fill:#F7B357;" width="30" height="128.45"/>
<polygon style="fill:#36E3C0;" points="62.5,387.008 97.193,387.008 97.193,406.102 130,406.102 130,362.501 203.5,362.501 
	203.5,395.501 263.893,395.501 263.893,332.001 338,332.001 338,409.001 375.5,409.001 375.5,387.008 415.755,387.008 
	415.755,368.393 449.5,368.393 449.5,444.501 62.5,444.501 "/>
<path style="fill:#C0E8F4;" d="M42.966,255.244L42.966,255.244c-19.587,0-35.466-15.878-35.466-35.465v-17.574h70.931v17.574
	C78.431,239.366,62.553,255.244,42.966,255.244z"/>
<path style="fill:#FF5948;" d="M113.977,255.244L113.977,255.244c-19.587,0-35.466-15.878-35.466-35.465v-17.574h70.931v17.574
	C149.443,239.366,133.564,255.244,113.977,255.244z"/>
<path style="fill:#C0E8F4;" d="M184.989,255.244L184.989,255.244c-19.587,0-35.466-15.878-35.466-35.465v-17.574h70.931v17.574
	C220.454,239.366,204.576,255.244,184.989,255.244z"/>
<path style="fill:#FF5948;" d="M256,255.244L256,255.244c-19.587,0-35.466-15.878-35.466-35.465v-17.574h70.931v17.574
	C291.466,239.366,275.587,255.244,256,255.244z"/>
<path style="fill:#C0E8F4;" d="M327.012,255.244L327.012,255.244c-19.587,0-35.466-15.878-35.466-35.465v-17.574h70.931v17.574
	C362.477,239.366,346.599,255.244,327.012,255.244z"/>
<path style="fill:#FF5948;" d="M398.023,255.244L398.023,255.244c-19.587,0-35.466-15.878-35.466-35.465v-17.574h70.931v17.574
	C433.488,239.366,417.61,255.244,398.023,255.244z"/>
<path style="fill:#C0E8F4;" d="M469.035,255.244L469.035,255.244c-19.587,0-35.466-15.878-35.466-35.465v-17.574H504.5v17.574
	C504.5,239.366,488.622,255.244,469.035,255.244z"/>
<path style="fill:#9ACAD9;" d="M474.5,202.205v17.574c0,14.225-8.378,26.487-20.466,32.138c4.557,2.13,9.638,3.327,15,3.327l0,0
	c19.587,0,35.466-15.878,35.466-35.465v-17.574H474.5z"/>
<path d="M157.699,31.71c-4.142,0-7.5,3.357-7.5,7.5v64.041c0,4.143,3.358,7.5,7.5,7.5h32.019c4.142,0,7.5-3.357,7.5-7.5V39.21
	c0-4.143-3.358-7.5-7.5-7.5H157.699z M182.218,95.751h-17.019V46.71h17.019V95.751z"/>
<path d="M216.974,31.709c-4.142,0-7.5,3.357-7.5,7.5V71.23v32.021c0,4.143,3.358,7.5,7.5,7.5s7.5-3.357,7.5-7.5V78.73h24.521
	c4.142,0,7.5-3.357,7.5-7.5V39.209c0-4.143-3.358-7.5-7.5-7.5H216.974z M241.495,63.73h-17.021V46.709h17.021V63.73z"/>
<path d="M305.878,46.709c4.142,0,7.5-3.357,7.5-7.5s-3.358-7.5-7.5-7.5h-32.021c-4.142,0-7.5,3.357-7.5,7.5V71.23v32.021
	c0,4.143,3.358,7.5,7.5,7.5h32.021c4.142,0,7.5-3.357,7.5-7.5s-3.358-7.5-7.5-7.5h-24.521V78.73h24.521c4.142,0,7.5-3.357,7.5-7.5
	s-3.358-7.5-7.5-7.5h-24.521V46.709H305.878z"/>
<path d="M354.12,39.21v32.269l-17.81-35.622c-1.556-3.112-5.048-4.747-8.432-3.946c-3.385,0.8-5.777,3.821-5.777,7.3v64.041
	c0,4.143,3.358,7.5,7.5,7.5s7.5-3.357,7.5-7.5v-32.27l17.81,35.622c1.292,2.583,3.916,4.147,6.707,4.147
	c0.571,0,1.15-0.065,1.725-0.201c3.385-0.8,5.777-3.821,5.777-7.3V39.21c0-4.143-3.358-7.5-7.5-7.5S354.12,35.067,354.12,39.21z"/>
<path d="M504.5,467.001H487v-22.497c0-4.143-3.358-7.5-7.5-7.5s-7.5,3.357-7.5,7.5v22.497H40V317.668c0-4.143-3.358-7.5-7.5-7.5
	s-7.5,3.357-7.5,7.5v149.333H7.5c-4.142,0-7.5,3.357-7.5,7.5v30c0,4.143,3.358,7.5,7.5,7.5h497c4.142,0,7.5-3.357,7.5-7.5v-30
	C512,470.358,508.642,467.001,504.5,467.001z M497,497.001H15v-15h17.5h447H497V497.001z"/>
<path d="M480.5,128.451h-11.016V54.514c0-4.143-3.358-7.5-7.5-7.5s-7.5,3.357-7.5,7.5v73.938H433.57h-0.08h-70.93h-0.08h-70.93
	h-0.08h-70.94h-0.08h-70.93h-0.08H78.51h-0.08H59.484V15.001h395v8.904c0,4.143,3.358,7.5,7.5,7.5s7.5-3.357,7.5-7.5V7.501
	c0-4.143-3.358-7.5-7.5-7.5h-410c-4.142,0-7.5,3.357-7.5,7.5v120.95H31.5c-17.369,0-31.5,14.131-31.5,31.5v42.254v17.574v1.182
	c0,0.288,0.02,0.57,0.052,0.849C0.819,238.221,10.84,252.246,25,258.793v28.156c0,4.143,3.358,7.5,7.5,7.5s7.5-3.357,7.5-7.5V262.63
	c0.981,0.067,1.968,0.114,2.965,0.114c14.738,0,27.763-7.461,35.506-18.802c7.742,11.341,20.768,18.802,35.506,18.802
	s27.763-7.461,35.506-18.802c7.743,11.341,20.768,18.802,35.506,18.802c14.738,0,27.763-7.461,35.506-18.802
	c7.742,11.341,20.768,18.802,35.506,18.802s27.763-7.461,35.506-18.802c7.743,11.341,20.768,18.802,35.506,18.802
	s27.763-7.461,35.506-18.802c7.743,11.341,20.768,18.802,35.506,18.802s27.763-7.461,35.506-18.802
	c7.743,11.341,20.768,18.802,35.506,18.802c0.998,0,1.984-0.046,2.965-0.114v150.371c0,4.143,3.358,7.5,7.5,7.5s7.5-3.357,7.5-7.5
	V258.793c14.16-6.547,24.18-20.57,24.948-36.98c0.032-0.28,0.052-0.563,0.052-0.852v-1.182v-17.574v-42.254
	C512,142.582,497.869,128.451,480.5,128.451z M461.984,143.451H480.5c9.098,0,16.5,7.402,16.5,16.5v34.754h-55.93v-51.254H461.984z
	 M425.99,143.451v51.254h-55.93v-51.254H425.99z M354.98,143.451v51.254h-55.93v-51.254H354.98z M283.97,143.451v51.254h-55.94
	v-51.254H283.97z M212.95,143.451v51.254h-55.93v-51.254H212.95z M141.94,143.451v51.254H86.01v-51.254H141.94z M31.5,143.451
	h20.484H70.93v51.254H15v-34.754C15,150.854,22.402,143.451,31.5,143.451z M42.965,247.744c-15.42,0-27.965-12.545-27.965-27.965
	v-10.074h55.93v10.113C70.909,235.22,58.373,247.744,42.965,247.744z M113.977,247.744c-15.42,0-27.965-12.545-27.965-27.965
	v-10.074h55.928v10.17C141.888,235.251,129.365,247.744,113.977,247.744z M184.989,247.744L184.989,247.744
	c-15.42,0-27.966-12.545-27.966-27.965v-10.074h55.927v10.229C212.867,235.282,200.357,247.744,184.989,247.744z M256,247.744
	c-15.42,0-27.965-12.545-27.965-27.965v-10.074h55.931v10.074C283.965,235.199,271.42,247.744,256,247.744z M327.012,247.744
	L327.012,247.744c-15.369,0-27.878-12.462-27.962-27.811v-10.229h55.927v10.074C354.977,235.199,342.432,247.744,327.012,247.744z
	 M398.023,247.744c-15.388,0-27.911-12.493-27.963-27.869v-10.17h55.928v10.074C425.988,235.199,413.443,247.744,398.023,247.744z
	 M469.035,247.744c-15.407,0-27.944-12.524-27.965-27.926v-10.113H497v10.074C497,235.199,484.455,247.744,469.035,247.744z"/>
<path d="M85.059,43.394v56.665c0,4.143,3.358,7.5,7.5,7.5s7.5-3.357,7.5-7.5V43.394c0-4.143-3.358-7.5-7.5-7.5
	S85.059,39.251,85.059,43.394z"/>
<path d="M411.941,43.394v56.665c0,4.143,3.358,7.5,7.5,7.5s7.5-3.357,7.5-7.5V43.394c0-4.143-3.358-7.5-7.5-7.5
	S411.941,39.251,411.941,43.394z"/>
<path d="M449.5,452.001c4.142,0,7.5-3.357,7.5-7.5v-76.107v-81.443c0-4.143-3.358-7.5-7.5-7.5h-387c-4.142,0-7.5,3.357-7.5,7.5
	v100.057v57.493c0,4.143,3.358,7.5,7.5,7.5H449.5z M442,437.001H70v-42.493h19.693v11.595c0,4.143,3.358,7.5,7.5,7.5H130
	c4.142,0,7.5-3.357,7.5-7.5v-36.102H196v25.5c0,4.143,3.358,7.5,7.5,7.5h60.394c4.142,0,7.5-3.357,7.5-7.5v-56H330.5v69.5
	c0,4.143,3.358,7.5,7.5,7.5h37.5c4.142,0,7.5-3.357,7.5-7.5v-14.493h32.755c4.142,0,7.5-3.357,7.5-7.5v-11.114H442V437.001z
	 M442,294.451v66.442h-26.245c-4.142,0-7.5,3.357-7.5,7.5v11.114H375.5c-4.142,0-7.5,3.357-7.5,7.5v14.494h-22.5v-69.5
	c0-4.143-3.358-7.5-7.5-7.5h-74.106c-4.142,0-7.5,3.357-7.5,7.5v56H211v-25.5c0-4.143-3.358-7.5-7.5-7.5H130
	c-4.142,0-7.5,3.357-7.5,7.5v36.102h-17.807v-11.595c0-4.143-3.358-7.5-7.5-7.5H70v-85.057H442z"/>
<g>
</g>
<g>
</g>
<g>
</g>
<g>
</g>
<g>
</g>
<g>
</g>
<g>
</g>
<g>
</g>
<g>
</g>
<g>
</g>
<g>
</g>
<g>
</g>
<g>
</g>
<g>
</g>
<g>
</g>
</svg>
