<svg xmlns="http://www.w3.org/2000/svg" viewBox="0 0 154 100">
    <defs>
        <clipPath id="hospital_a">
            <path fill="none" stroke="#707070" d="M4 0h146a4 4 0 0 1 4 4v96H0V4a4 4 0 0 1 4-4z" transform="translate(486 3369)"/>
        </clipPath>
        <filter id="hospital_b" width="40" height="40" x="23" y="30" filterUnits="userSpaceOnUse">
            <feOffset dy="3"/>
            <feGaussianBlur result="hospital_c" stdDeviation="3"/>
            <feFlood flood-color="#222" flood-opacity=".1"/>
            <feComposite in2="hospital_c" operator="in"/>
            <feComposite in="SourceGraphic"/>
        </filter>
        <filter id="hospital_c" width="25" height="25" x="30.5" y="35.5" filterUnits="userSpaceOnUse">
            <feOffset dy="1"/>
            <feGaussianBlur result="hospital_e" stdDeviation=".5"/>
            <feFlood flood-opacity=".1"/>
            <feComposite in2="hospital_e" operator="in"/>
            <feComposite in="SourceGraphic"/>
        </filter>
        <filter id="hospital_d" width="40" height="40" x="58" y="5" filterUnits="userSpaceOnUse">
            <feOffset dy="3"/>
            <feGaussianBlur result="hospital_g" stdDeviation="3"/>
            <feFlood flood-color="#222" flood-opacity=".1"/>
            <feComposite in2="hospital_g" operator="in"/>
            <feComposite in="SourceGraphic"/>
        </filter>
        <filter id="hospital_e" width="25" height="25" x="65.5" y="10.5" filterUnits="userSpaceOnUse">
            <feOffset dy="1"/>
            <feGaussianBlur result="hospital_i" stdDeviation=".5"/>
            <feFlood flood-opacity=".1"/>
            <feComposite in2="hospital_i" operator="in"/>
            <feComposite in="SourceGraphic"/>
        </filter>
        <filter id="hospital_f" width="40" height="40" x="85" y="58" filterUnits="userSpaceOnUse">
            <feOffset dy="3"/>
            <feGaussianBlur result="hospital_k" stdDeviation="3"/>
            <feFlood flood-color="#222" flood-opacity=".1"/>
            <feComposite in2="hospital_k" operator="in"/>
            <feComposite in="SourceGraphic"/>
        </filter>
        <filter id="hospital_g" width="25" height="25" x="92.5" y="63.5" filterUnits="userSpaceOnUse">
            <feOffset dy="1"/>
            <feGaussianBlur result="hospital_m" stdDeviation=".5"/>
            <feFlood flood-opacity=".1"/>
            <feComposite in2="hospital_m" operator="in"/>
            <feComposite in="SourceGraphic"/>
        </filter>
    </defs>
    <g clip-path="url(#hospital_a)" transform="translate(-486 -3369)">
        <path fill="#e6e4e0" d="M486 3369h154v100H486z"/>
        <path fill="#fff" stroke="#d6d9e5" stroke-width=".3" d="M540.2 3469l-35-19.4s-.7-.7-.4-1.3 1.1-.4 1.1-.4l38 21zm71.2 0h0zm-26.6-3.8l-6.6-2.5-9.4-4.2-8.2-4.4-20-10.9-19.4-10.7-5-2.6-5.1-2-6.1-1.9-6.3-1.2-2.5-.4-10.2-1.7v-2.9l3.9.6 10.4 1.7 11.7 3 4.3 1.7 8.7 4.5 9.4 5.1 16 8.8 12.8 7 10.8 5.6 12.4 4.7 8.3 2.4 16.7 4h-12.7zm-.5 3.8l-5-1.4-8.3-3.6-9.5-5.3-17-10-25-13.6-8.6-4-5.7-2-7-1.3-7.7-1-4.5-.8v-3l2.3.6 10 1.3 6.5 1.3 6.4 2 4 1.5 5.2 2.7 7.7 4 17.2 9.5 26.5 15 8.6 4 14.7 4zm-9 0l-11.2-5-3.6-1.9-3.2 7H555l3.8-8-6-3.6-19.2-10.7-8.3-4.6-12.4-6.5-5.9-2.5-7-2-8.3-1.6-5.8-.8v-1.8l6 .8 8 1.4 7.8 2.3 6.2 2.6 20.8 11.2 19.6 10.9 7.3 4.5 4.3 2.2 13.8 6.1zm16.5-15l-1.8-3 4-14.6a.7.7 0 0 1 .5-.4l2.6-.5h0l21.3 5.4 2.3-10.2-6.4-.7-9.1-2-11.1-3-25.5-12.3-6.4-2.9-6.2-3.4-4 7.4 14.3 7.8h0l1.6 1.5a1.5 1.5 0 0 1 .3.9v.5a5 5 0 0 1 0 1.1c0 .3-3.7 7.6-5.9 12v.1h0a1 1 0 0 1-.4.5 19.9 19.9 0 0 1-2 .7h0l-3.3-1.2-30-16.8-1.4-2.4.5-2 5.2-10 1.4-2 .6-.2h0a.5.5 0 0 1 .2 0 15.4 15.4 0 0 1 2.6.5h0l3.3 1.8 11.4 6.3 4.1-7.4-26-14.2-2.3-1-12.4-3-16.3-2.7-7.7-1.4-3.8 6.3v-3.5l2.2-3.5-2.2-1.3v-2.3l1.8 1.3 2 1 12.1 2.3 12.2 2 11.6 2.8 9.7-19.3h2.2l-10.2 19.8.4.2 10.1-20h2l-10.5 20.7 6.5 3.4 27.4 15.1 6 2.8 5.4-9.7 2.6-5.4 1.7-4.9 1.4-7.9v-4l-.5-4.6-1.4-5.5h2l1.2 5.2.5 4.7v4.1s-.6 5-.8 5.7c-.2.8-1.1 4.3-1.5 5.3l-2.9 6.6h0a.2.2 0 0 0 0 0l-6 11.2 24 11.5 2.1.6 4.7-10.9 4.6-8.5 12.7-13.2a1.2 1.2 0 0 1 .7-.2 1 1 0 0 1 .7.3 1 1 0 0 1 .3.7 1.1 1.1 0 0 1-.3.7h0l-3.8 3.8 21.4 24.8a1.2 1.2 0 0 1 .2.4.8.8 0 0 1-.3.8.9.9 0 0 1-.6.2 1.7 1.7 0 0 1-.8-.2h0l-3.7-4.4-8 1.8-7.5-.8-5.5-1.3-2.4 5.5a1 1 0 0 1-.1.3.8.8 0 0 1-.7.3 1.4 1.4 0 0 1-.4 0c-.4-.2-.6-.3-.7-.5a.4.4 0 0 1 .1-.4l3-6.8 4-6.8 5.2-6.4-4.6-5.2-7.3 7.6-4.7 8.5-4.4 10.5 15.7 3.7 7.5.8h5.7l4.6-.5 7-2.9.6-.5v2.3l-7.6 3-5 .4h-4.8l-2.4 10.5 19.8 4.9v1.9l-20.5-5-22.5-5.8-1.5.4-3.5 13 1 1.7 45 10.8 1.7-.3.3-.6v2.4l-2 .4zm-59.3-46.7l-5.1 9.9-.4 1 .9 1.4 29.5 16.5 2.5.9.8-.3 5.7-11.4-.1-1.1-1.2-1.2-29.8-16.3-2-.4zm83.8 3.2l-3.5 5.7 4.7 1.2 7.3.8 6.7-1.5-10.4-12.2zm-119.7 2.2l-8.5-1-2.1-.8v-2l2.6.8 10 1.3h1l1-1.2 2-12-.4-1.8-1.6-1-4 .4-9.2-1.5-1.4-.8v-2.2l2.1 1.2 8.6 1.5 4.1-.4a1.6 1.6 0 0 1 .6 0 12.7 12.7 0 0 1 2.3 1.6 20 20 0 0 1 .7 2.9l-2 13-1.8 1.9s-.1.2-.7.3a2 2 0 0 1-.4 0l-2.9-.2zm130.3-17.8l.3-3.6s0-.5.2-.6h.5l4 .7 8 9v1.6l-8.5-9.5-3-.5-.3 2.5L640 3407v1.7zm-71.2 7a.8.8 0 0 1-.4-1l3-5.4-18.4-10a1 1 0 0 1-.3-1.2.9.9 0 0 1 1-.4l4.7 2.4 9-17.3h2.2l-9.6 18.1 12.2 6.8 4-9.5-.7-9.7-2.5-5.7h2l2.3 5.2.9 10.3-4.6 10.7-3.6 6.4a1 1 0 0 1-.8.4 1 1 0 0 1-.4-.1zm-34-24l-28.1-5-4.4-2-2.4-1.9h2.8l.6.5 4.2 1.8 20.6 3.5 2.8-5.8h2.1l-3 6 5.5 1s.7.2.5 1.1a1 1 0 0 1-1 .8 1.3 1.3 0 0 1-.2 0z"/>
        <path fill="rgba(247,49,49,0.07)" d="M486 3369v10l3.6 2 24.8 4.4 11.2 2.8 4.8 2 32.5 17.7 6.4 3a92.7 92.7 0 0 0 6.5-12c2.4-5.4 5.1-12.1 4.5-20.4s-1.7-9.5-1.7-9.5z"/>
        <path fill="rgba(247,49,49,0.15)" d="M486 3381.2l2.3 1.3 1.6.7 24 4 12.3 3 28.4 15.3 7.7 4.4 9.6 4.4L594 3425l11.1 3 8.8 2 8.6.8h5.2l4.7-.5 7.6-3v41.7h-28.7l-17-4.3-8.1-2.3-12.4-4.6-37.8-20.5-13.7-7.4-6.4-3.3-3.9-1.6-11.9-3-14.1-2.2z"/>
    </g>
    <g filter="url(#hospital_b)">
        <path fill="#fff" d="M43 36a11 11 0 1 1-11 11 11 11 0 0 1 11-11z"/>
    </g>
    <g filter="url(#hospital_c)">
        <path fill="#fff" d="M43 36a11 11 0 1 1-11 11 11 11 0 0 1 11-11z"/>
    </g>
    <path fill="#ee908e" d="M43 38a9 9 0 1 1-9 9 9 9 0 0 1 9-9z"/>
    <path fill="#fff" d="M41.3 41.8v3.6h-3.6v3.3h3.6v3.4h3.3v-3.4h3.6v-3.3h-3.6v-3.6z"/>
    <g filter="url(#hospital_d)">
        <path fill="#fff" d="M78 11a11 11 0 1 1-11 11 11 11 0 0 1 11-11z"/>
    </g>
    <g filter="url(#hospital_e)">
        <path fill="#fff" d="M78 11a11 11 0 1 1-11 11 11 11 0 0 1 11-11z"/>
    </g>
    <path fill="#ee908e" d="M78 13a9 9 0 1 1-9 9 9 9 0 0 1 9-9z"/>
    <path fill="#fff" d="M76.3 16.8v3.6h-3.6v3.3h3.6v3.5h3.3v-3.5h3.6v-3.3h-3.6v-3.6z"/>
    <g>
        <g filter="url(#hospital_f)">
            <path fill="#fff" d="M105 64a11 11 0 1 1-11 11 11 11 0 0 1 11-11z"/>
        </g>
        <g filter="url(#hospital_g)">
            <path fill="#fff" d="M105 64a11 11 0 1 1-11 11 11 11 0 0 1 11-11z"/>
        </g>
        <path fill="#ee908e" d="M105 66a9 9 0 1 1-9 9 9 9 0 0 1 9-9z"/>
        <path fill="#fff" d="M103.3 69.8v3.6h-3.6v3.3h3.6v3.4h3.3v-3.4h3.6v-3.3h-3.6v-3.6z"/>
    </g>
</svg>
