<svg xmlns="http://www.w3.org/2000/svg" viewBox="0 0 154 100">
  <defs>
    <clipPath id="location_a">
      <path fill="#fff" stroke="#707070" d="M4 0h146a4 4 0 0 1 4 4v96H0V4a4 4 0 0 1 4-4z" transform="translate(669 563)"/>
    </clipPath>
    <filter id="location_b" width="43.5" height="54.7" x="55.3" y="26.1" filterUnits="userSpaceOnUse">
      <feOffset dy="3"/>
      <feGaussianBlur result="location_c" stdDeviation="3"/>
      <feFlood flood-color="#222" flood-opacity=".1"/>
      <feComposite in2="location_c" operator="in"/>
      <feComposite in="SourceGraphic"/>
    </filter>
    <filter id="location_c" width="28.5" height="39.7" x="62.8" y="31.6" filterUnits="userSpaceOnUse">
      <feOffset dy="1"/>
      <feGaussianBlur result="location_e" stdDeviation=".5"/>
      <feFlood flood-opacity=".1"/>
      <feComposite in2="location_e" operator="in"/>
      <feComposite in="SourceGraphic"/>
    </filter>
  </defs>
  <g clip-path="url(#location_a)" transform="translate(-669 -563)">
    <path fill="#e6e4e0" d="M669 563h154v100H669z"/>
    <path fill="#c0e3a5" d="M793.2 634.8l-1-1 2.8-3.3.1-2.9-.3-.7-.9-1.6-2.4-2-3.3-2.5-2.3-.9h-.8l-.8.4-3.1 3-8.4-7.3a3.9 3.9 0 0 1 2-1.6 44 44 0 0 0 6.7-3.3 20.6 20.6 0 0 0 3.3-3.8 16 16 0 0 1 3.5-3.5 12 12 0 0 1 3.5-.4 4.4 4.4 0 0 0 2.3-.9 5.7 5.7 0 0 0 1.5-2.4 5.4 5.4 0 0 0 0-1.8c0-.8-1.2-5.6-1.3-6.2a3 3 0 0 1 .4-1.8 1.6 1.6 0 0 1 1.3-.7l8.3-.3a5.7 5.7 0 0 0 2.2-.9 3 3 0 0 0 1.2-1.7c.1-.5 1.7-6.6 2.2-7.3s1.9-2.7 3.4-3.2a8.5 8.5 0 0 1 3.5 0l6.2.8v31l-2.8 2.7-1.7.4-1.7.8-1.1 1.5-1 2.8-6.8 7.5-10.3 11.3-1.5.2zM669 563h39l-6.7 8-6.4 7.7 3.7 3.4v.4l-1.3 1.7-1.1-1-.6-.1-.8.4-12.7 12L669 610zm60.8 0h6.9l2.1 1.3 2.7 6 1.2 1-1.4 1.8zm13.4 6l-2.4-5.2-.6-.8h10.1l-6.1 6.8z"/>
    <path fill="#8aceec" d="M774.7 615l6.9-2.9 4.7-5.3 2.3-2.5 1.5-.4h2.7l1.7-.7 1.6-2.3.4-2-.6-2.5-.8-3.7v-2l.6-.5 2-.4 4.2-.2 2.8.2 1.6-.6 1.7-1.5 1-3.2 1.4-4.7 1.6-2 1.6-1.1 2-.1 3 .4 4.4.5V563h-14l-1.3 2.5-4.5 4.1-6.7 4.8-6.5 5-3.3 3-1.8 2.5-2.7 5.8-2.4 5.5-4 8.6-2.4 5.6-.3 2.7.5 1.5.5.5z"/>
    <path fill="#fff" stroke="#d6d9e5" stroke-width=".2" d="M682 663l11.8-12.4 10.8-11.2 12.6-13.3 3.4-4 5.3-8.1 1.8-2.2 4.8-5 11.3-11.7 6.2-7 11.3-13.3 6.3-7 4-4.8h1.4l-9.1 10.6-6.5 7.5-3.7 4.3.1.3 3.2.7-.4 1.2-3.5-1.2h-.4l-6 7.1-5.7 6-9 9.4-4.2 4.5-5.8 8.5-2.3 3-4.7 5-17.5 18.3-10.1 10.5-4 4.2zm119.5-38.5a8.7 8.7 0 0 1-3.5-2.2 10.1 10.1 0 0 1-1.5-4 5.7 5.7 0 0 0-.5-2.4 118 118 0 0 0-3.4-3.3l-.5-.5-.9-2.9-.7-1.9a17.5 17.5 0 0 0-1.4 1.5s-5 4.7-5.7 5.2-3.1 1.6-3.1 1.6a17 17 0 0 1-3.5 1.1l-2 2.2-.7-.6 1.4-1.8a3.7 3.7 0 0 1-2.6-2.2c-.8-1.8.5-5.3.7-5.8l1.3-3.1 4.4-9.2s4.7-11 6.3-13.1a34.5 34.5 0 0 1 5-5l8-5.9s7.1-5.3 7.9-6.2a19.6 19.6 0 0 0 1.7-3h1.3a9.7 9.7 0 0 1-1.8 3.6 29.3 29.3 0 0 1-3.7 3.3l-10.8 7.5-5 4.3a18.4 18.4 0 0 0-3 4.1l-1.7 3.7-4.7 10h0l2 .7a7.9 7.9 0 0 0 2 .2c1-.1 1.7-.7 2.7-.8a9.7 9.7 0 0 1 3.1 1s1 .4 1 .6l.6 1.8.6 2.7h0a8.1 8.1 0 0 1 .9-.2l3-.7a31.3 31.3 0 0 0 3-1.9 15.1 15.1 0 0 0 2.2-2.9 3.3 3.3 0 0 0 .2-1.6 17.3 17.3 0 0 0-.6-2.4s-.9-4-.4-4.8a1.6 1.6 0 0 1 1.6-.7h3.4a10.3 10.3 0 0 0 4.4-1.6 12.8 12.8 0 0 0 3.7-3.6 27.9 27.9 0 0 0 .7-4.5c0-.6.7-2.5 2.3-2.9a8.9 8.9 0 0 1 3.6.1c.6 0 4.2 1 4.2 1v1.2l-4.3-1s-2.8-.4-3.5 0-.8 1-1.2 2c-.4.8-.3 3-.8 4.2l.6 1a51 51 0 0 1 3.2 4.7 15.3 15.3 0 0 1 .9 4.3 26 26 0 0 1 0 3.2 16.7 16.7 0 0 1-.5 2.6l-1 2.2 4-3.1a9.6 9.6 0 0 1 1.9-1 5.3 5.3 0 0 1 .7-.2v1.3a4.1 4.1 0 0 0-.6 0 8.6 8.6 0 0 0-1.5 1c-.2.2-3 2.4-5.5 4l-.6 1.4-2.4 4.6a20 20 0 0 0-1.6 3.7l-.8 3.5a14.2 14.2 0 0 1-1.9 3.8 6.2 6.2 0 0 1-4 2.5 3.9 3.9 0 0 1-.6 0 7.4 7.4 0 0 1-2-.4zM795 606c-1.2.3-2.9.6-3.7.9h0a15.6 15.6 0 0 0 .7 1.9c.3.4.6 2.4 1 2.8l2.2 2.3s1.7 1.5 1.9 1.9a9 9 0 0 1 .4 2s.3 3 1.3 4a6.1 6.1 0 0 0 2.5 1.5 6.4 6.4 0 0 0 2.2.4 5 5 0 0 0 4.4-3.2 22.2 22.2 0 0 0 1.8-5.3l1-3.1 2.8-5.2a30.2 30.2 0 0 1-7.7 3.3 14 14 0 0 1-5.9.1 6 6 0 0 1-3.4-2.3 9.8 9.8 0 0 1-1-2.2 10.8 10.8 0 0 1-.6.2zm-20.6 3a15.5 15.5 0 0 0-.8 3.9 4.8 4.8 0 0 0 1 2.3 3.3 3.3 0 0 0 2.1.6 26.3 26.3 0 0 0 3.7-1.4 22.7 22.7 0 0 0 2.3-1.2l5-4.6 2.4-2.3v-.2l-.7-3c0-.3-.1-1.2-.7-1.6a12.8 12.8 0 0 0-2.6-.8 4 4 0 0 0-1 0 15.6 15.6 0 0 1-2.2.6 9.3 9.3 0 0 1-3-.2l-1.5-.7zm26-17.1c-.6.4-.4 1-.3 1.5l.8 3a9.7 9.7 0 0 1 .3 3.3 5.8 5.8 0 0 1-.6 1.6 12.9 12.9 0 0 1-2.3 2.7 12.2 12.2 0 0 1-2 1.4 5.9 5.9 0 0 0 1 1.8 5 5 0 0 0 3 2 14.1 14.1 0 0 0 5.4-.1 36.9 36.9 0 0 0 7.6-3.3l1.3-1 1.8-3.8a16.7 16.7 0 0 0 .5-4.7 15.2 15.2 0 0 0-.9-4.6 42.5 42.5 0 0 0-3.4-5.2 11.7 11.7 0 0 1-3.2 3.2 11.3 11.3 0 0 1-5.3 2 11.6 11.6 0 0 1-1.7 0h-1a1.9 1.9 0 0 0-1 .2zM669 605v-1.2l.6-.6 1.2-1.5a15 15 0 0 0 .4-1.8 2.8 2.8 0 0 0-.8-1.6 6.4 6.4 0 0 0-1.3-1h0v-4l.2.6.3 2.7 1.2 1 .4-.1 2.1-2.2.2-.9v-4.3l-.2-1.8-4.3 1.2v-1.2l4.3-1 .3-.7.2-2.3-.2-1.5-1.2-2.7-3.4.5v-1l3.4-.6h0v-.2l.1-5a5.5 5.5 0 0 0 .1-.5v-.1 0a6.6 6.6 0 0 1 .4-1.5 25.4 25.4 0 0 0 1.7-2.5 10.3 10.3 0 0 0 .8-2.6v0l.2-.6a25.5 25.5 0 0 0 .3-3v-.1h1l-.1 2-1 4a6.5 6.5 0 0 1-1 1.8h0l3.4.4c.7.2 5.6 1.4 6.7 1.5a22.3 22.3 0 0 0 3 0h0v-6l.2-.3 1.8-1.8v-.3l-1-1.3h1.4v0a2.6 2.6 0 0 0 .6 1.2 3.9 3.9 0 0 0 1.3.5 13.4 13.4 0 0 0 2.3.5.5.5 0 0 0 .2 0 1.6 1.6 0 0 0 .5-.2l1.9-2h2l-1.7 1.4h0a25.4 25.4 0 0 1-2 2 .5.5 0 0 1-.3 0 2 2 0 0 1-.5-.1l-4-.9-1.6 1.6v5.8h1.6a8.3 8.3 0 0 0 2.3-1.2h.2a58 58 0 0 0 1.7-1 26.8 26.8 0 0 0 2-1.9h0v-.1l4.8-5-.8-.6h1.4l5.8 4.8-.6.9-5.2-4.4-.4.4-2.7 3-3.6 3.8a15 15 0 0 1-2 .9l4.2 3.6-.6.8-.7-.6a1.4 1.4 0 0 0-.1.1l-.1.1-.2.2-.3.4-2.2 2.7a.7.7 0 0 1-.5.2.3.3 0 0 1 0 0l-1.9.1-8.7 7.4-1.8 1.3-6 3.5-.4 3.8-2.8 2.5h0a7 7 0 0 1 .8 1.8 10.1 10.1 0 0 1-1.2 3 26.1 26.1 0 0 1-2 1.8h0zm4.7-32.2l-.3 2v5a8.4 8.4 0 0 1 1.6 4.3 15.4 15.4 0 0 1-.8 4.6l.3 2 .3.3 1.6-.9 3.2-1.9 3.5-2.8 3.7-3 4.3-3.6 1.2-1.6v0l.2-2v-2.4 0l-1.2.7-1.7.3h-3.2a29.6 29.6 0 0 1-3-.5l-6.1-1.4-3-.3zm19.8 3.9l-.2.6-1.4 1.6.6.1.5-.2 2.8-3.2-2.4-2.1z"/>
    <path fill="#ededd2" d="M669 563v7.6l2.6 1.4 3.7-5.5.5-3.5z"/>
    <path fill="#fff" stroke="#d6d9e5" stroke-linejoin="round" stroke-width=".3" d="M679.5 663H669v-4.2l13.6-16v0h0l-.5-1.3a23.8 23.8 0 0 0-2.8-2.3h0l-10.3-8v-1.7l13.6 10.5 2.6.2L695 629l-.3-.7-11.9-11.2-2.2.4-2.8-2-.3-3.5 2.1-2.6h3.6l2.3 2.1v2.8l12.8 10.7 4.3-5-.1-5.5 3.4-5.3-3.8-3.1-4.8-4.3-4.5-4-4.7-5.6-5.6-4.8.9-.8 5.5 4.8 4.6 5.4 3.8 3.3 9.8 8.5 3.9 1.8 14.3-16.3-2.6-2.2h0v0h0v0h0l-1.4 1h0l-.4.1h0v0l-.2.2a6.5 6.5 0 0 0-1.3 1.4h0-.1 0a24.3 24.3 0 0 1-1.8 2.2l-1.7.8h0v0h0-.1a3 3 0 0 1-.4.1l-.5-.1c-.2-.2 0-.8.1-1v0h.1a22.8 22.8 0 0 0 2.3-1.5l.6-.7v-.2h.1v-.1h.1v-.1 0-.1l.2-.1h0a5.9 5.9 0 0 1 1-1.4 16.6 16.6 0 0 1 2.4-1.3h.1l-1.4-1.4-1.8 1-3.8.5-4-3.2-1-4.7 2.7-3.9 4.4-1.5h0a20 20 0 0 1 3.5 1.2 23 23 0 0 1 2 2.2v0l.6 4.7-.2 1-.6 1 1.5 1.2 4-6h0a45 45 0 0 1 2.8-3.8l5.4-6 .8-.7-11.3-9.7h2l14.6 12.9 3-3.2-2.8-2.5-2-4-.9-2-1.7-1.2h1.9l.9 1 2.5 5.4 2.9 2.5 8-9h13.8L745 589v2.6l3.7 4.1 5.3 5 3.7-4.4h0L755 594h0a2 2 0 0 1-.4-1.1 11.2 11.2 0 0 1 .5-2.4l3.3-9.1a8.3 8.3 0 0 1 1.3-1.8 2.8 2.8 0 0 1 1.4-.5h3.7l1.3-2.5 2.2-3.5 4.2-5 4.4-5.2h2.3l-6.7 7.5-3 3.7-3 4.5-2.1 4.6-1.8 4.9s0 0 0 0v0h0l-1.4 3.7a.1.1 0 0 0 0 0h0v.1h0v0h0v0a.1.1 0 0 0 0 .2h-.1v.1a30.3 30.3 0 0 1-1.9 3.8l-4.2 5.3h0-.1 0l-.1.2 5.7 5.3 4.6 1.5 4.5 2.5 1 2.7.3 1.6 10 9 3.7-3.7a2 2 0 0 1 1-.3 2.4 2.4 0 0 1 .3 0h0c.4.1 2.2 1.5 5 3.9h0l3.2 3v0a2.6 2.6 0 0 1 .5 2 3.3 3.3 0 0 1-1 2l-2.2 2.7 1.3 1.2h0a4.5 4.5 0 0 0 2.4.6h.3a6.3 6.3 0 0 0 2.8-.4c.3-.1 6-6.4 16.9-18.6l.2-.3h0a6.3 6.3 0 0 1 1.4-3.4c1-1 3.8-1.7 4-1.8h0l2.2-2V622h-1l-10 10.4 11 11.2v3.3l-7 7.2v2.3l7 6.7h-2l-6.5-6 .2-2.2-7.3 8.2h-1.7l6.2-6.8-3.4-1-5.6-5-8.6 10.8-1 1.2h0a.6.6 0 0 1-.3 0 .7.7 0 0 1-.5-.2.5.5 0 0 1-.1-.5 1 1 0 0 1 .1-.5l.6-.7 9-11-3.3-3-2.4 2.7-9 10h0a1 1 0 0 0-.5.8 11.8 11.8 0 0 0 1 3.1v0h0v0h-19.6l-6.2-5.4-19.5-17.4a9.2 9.2 0 0 1-2.8 0 2.4 2.4 0 0 1-1-.6l-2.2-1.9-7 7.6-16.3 17.8h-2.8l3.5-4 .2-.5h-.6l-3.8 4.5h-3.3l3.7-4a3 3 0 0 0 .4-1.4 5.6 5.6 0 0 0-1-2.6v0l-6.3-5.5a.8.8 0 0 0-.6 0 2.8 2.8 0 0 0-.4 0 3.5 3.5 0 0 0-1.7.9L689 663h-3l13.5-15 1.5-.3-4.8-4-.3.4-16.4 19zm102-1l1.7 1-.5-2.6zm-42.2-30.6l33 29.2v-.8l-17.1-15.1-19.8-17.6-7.3-5.4zm39.1 27.9h0l2.1-2.8a7.8 7.8 0 0 1-1 .4 7 7 0 0 1-2.7.6 5.4 5.4 0 0 1-.5 0zm-41.9-37.1l4.2 3.7 27.5 24.3 6.6 5.9.7.2a7.2 7.2 0 0 0 2.1 0 14 14 0 0 0 3.9-2.2l4.3-4.4 1-1.4 5.2-5.8v0a9.2 9.2 0 0 0 .1-3 8.7 8.7 0 0 0-.7-2.8v0l-9-8.3-3.4 3.8.6.5v.9a.6.6 0 0 1-.4 0 1.2 1.2 0 0 1-.4 0l-.5-.5-4.3 5.2h0a5.8 5.8 0 0 1-1.6.6h0a.2.2 0 0 1-.2 0 5 5 0 0 1-1.2-.2l-10.4-8.9h0c-.1 0-.4-.4-.4-.6a1 1 0 0 1 .2-.6l1.3-1.5 4.6-5.6 3.5-4-4.3-3.8-18.4-16.1-4.3-3.5h-2.1l-1.4 1.7-13.5 14.4 1.7 3 4 4.8 3 2.8zm-1.2 12.5l-18.7 21 19.1-20.4 1-.2-1.2-1.3zm-22 20.6l.7-.6-1.2-1-1.6-.3h0zm92-16l-5.6 6.1 9.4 8.6 3.8 1 10-10-11.7-11.9zm-104.6 5.4l9 7.7.4-1-8.6-7.5zm15-23l-15.8 17.9 14 11.9h3l13.7-15 2.1-2.4-10.2-9s-.6-1-.3-1.3a.3.3 0 0 1 .3 0 1.3 1.3 0 0 1 .7.2l10.2 9.2.5-.6-14.9-13.7h-.8 0zM697.5 642l2.6 2.1.7-.7-2.5-2.3zm96.8-2.2l2-1.8-2.4-.5zm-56.6-2.8a27.2 27.2 0 0 0 2.8 2.1 3.7 3.7 0 0 0 .8-.2l-2.2-2a1.5 1.5 0 0 0-.7-.2h0a2.6 2.6 0 0 0-.7.3zm24-8l9.5 8.2a1.3 1.3 0 0 0 .8.3h.1a3.4 3.4 0 0 0 1-.1h0l1.2-1.5-10.4-9.4zm3.2-3.7l10.3 9.5 2-2.4-10.5-9.2zm16.7-.4l9 8.3.6-.6-9.2-8.2zm3.3-3l-1.8 1.9 8.6 7.9 1.7-2.2v0a2 2 0 0 0 .1-1 2.4 2.4 0 0 0-.4-.9v0l-6.7-5.8a2 2 0 0 0-.7-.2h0a1.1 1.1 0 0 0-.8.4zm-17.3.2l10.4 9.3 3.3-3.9-1.2-1-9.3-8.2zm-71 5l.3-.4-7.6-6.7zm7.2-12.1l.2 3.4 6.2-7-3-1.5zm19.6-2.2h-.1l.7.3 2.8 1.9 2.9 2.5-2.8-3.2-1.1-1.8-.9-1.4zm96.6 3.7a1 1 0 1 0 1-1 1 1 0 0 0-1 1zm-140.3-3a1.9 1.9 0 1 0 1.8-1.9 1.9 1.9 0 0 0-1.8 2zm90 1s-.7-2.4-1.4-2.9l-5.6-3h0zM756.2 592a1.4 1.4 0 0 0-.2.8 13.8 13.8 0 0 0 2.2 2h0l2-4.2.6-1.4-3-1.2zm-32.5-.7l2.4 2h0v0l.3-.4-.5-.4a.6.6 0 0 1-.1-.1h0v0-.1a.1.1 0 0 0-.1 0h0a.1.1 0 0 0 0 0v-.1h-.1l-.1-.1-.2-.1a.4.4 0 0 1 0-.1h0l-.3-.2-.2-.2-.3-.3h0l-.3-.3h0-.5zm10.1-13.6l-4.6 5.2-4.7 7 2.6 2.4 14.1-15.8-3.5-3zM721.2 589h-.1l1.8 1.7.4-.3-1.9-1.7zm-8-8.5l-2 3 .7 4 3 2.3 4.1-.6 1.4-1 1-1.6.1-1.8-.5-3-1.4-1.6-2.5-1zm47.2.4a6.8 6.8 0 0 0-1.2 2.5v0l-1 3.7 3 1 1.5-4.3 1.4-3.1-2.9-.1a1.5 1.5 0 0 0-.8.3z"/>
    <g filter="url(#location_b)" transform="translate(669 563)">
      <path fill="#fff" d="M77 32.1A12.7 12.7 0 0 0 64.3 45c0 5 2.7 8.5 5.4 12 2 2.6 4 5.3 5 8.6l1 3.4h2l1.3-3.4c1.1-3.4 3.2-6.1 5.3-8.7 2.7-3.5 5.4-7.1 5.4-12A12.7 12.7 0 0 0 77 32.2z"/>
    </g>
    <g filter="url(#location_c)" transform="translate(669 563)">
      <path fill="#fff" d="M77 32.1A12.7 12.7 0 0 0 64.3 45c0 5 2.7 8.5 5.4 12 2 2.6 4 5.3 5 8.6l1 3.4h2l1.3-3.4c1.1-3.4 3.2-6.1 5.3-8.7 2.7-3.5 5.4-7.1 5.4-12A12.7 12.7 0 0 0 77 32.2z"/>
    </g>
    <path fill="#414141" d="M746 597.4a10.5 10.5 0 0 0-10.5 10.5c0 7.5 7.7 11.7 10.3 19.9 3-8.5 10.7-12.7 10.7-20a10.5 10.5 0 0 0-10.5-10.4z"/>
    <path fill="#fff" d="M746 604.4l-4.5 3v6.8h3.8v-3.8h1.5v3.8h3.7v-6.8z"/>
  </g>
</svg>
