<svg xmlns="http://www.w3.org/2000/svg" viewBox="0 0 154 104">
    <defs>
        <clipPath id="park_a">
            <path fill="#fff" stroke="#707070" d="M4 0h146a4 4 0 0 1 4 4v96H0V4a4 4 0 0 1 4-4z" transform="translate(567.7 571.6)"/>
        </clipPath>
        <linearGradient id="park_b" x1="1.7" x2=".7" y1=".9" y2="1.2" gradientUnits="objectBoundingBox">
            <stop offset="0" stop-color="#4159dd" stop-opacity=".1"/>
            <stop offset="1" stop-color="#c0e3a5" stop-opacity=".3"/>
        </linearGradient>
        <filter id="park_c" width="40" height="40" x="83" y="22" filterUnits="userSpaceOnUse">
            <feOffset dy="3"/>
            <feGaussianBlur result="park_d" stdDeviation="3"/>
            <feFlood flood-color="#222" flood-opacity=".2"/>
            <feComposite in2="park_d" operator="in"/>
            <feComposite in="SourceGraphic"/>
        </filter>
        <filter id="park_e" width="25" height="25" x="90.5" y="27.5" filterUnits="userSpaceOnUse">
            <feOffset dy="1"/>
            <feGaussianBlur result="park_f" stdDeviation=".5"/>
            <feFlood flood-opacity=".1"/>
            <feComposite in2="park_f" operator="in"/>
            <feComposite in="SourceGraphic"/>
        </filter>
        <filter id="park_g" width="40" height="40" x="41" y="39" filterUnits="userSpaceOnUse">
            <feOffset dy="3"/>
            <feGaussianBlur result="park_h" stdDeviation="3"/>
            <feFlood flood-color="#222" flood-opacity=".2"/>
            <feComposite in2="park_h" operator="in"/>
            <feComposite in="SourceGraphic"/>
        </filter>
        <filter id="park_i" width="25" height="25" x="48.5" y="44.5" filterUnits="userSpaceOnUse">
            <feOffset dy="1"/>
            <feGaussianBlur result="park_j" stdDeviation=".5"/>
            <feFlood flood-opacity=".1"/>
            <feComposite in2="park_j" operator="in"/>
            <feComposite in="SourceGraphic"/>
        </filter>
        <filter id="park_k" width="40" height="40" x="104" y="64" filterUnits="userSpaceOnUse">
            <feOffset dy="3"/>
            <feGaussianBlur result="park_l" stdDeviation="3"/>
            <feFlood flood-color="#222" flood-opacity=".2"/>
            <feComposite in2="park_l" operator="in"/>
            <feComposite in="SourceGraphic"/>
        </filter>
        <filter id="park_m" width="25" height="25" x="111.5" y="69.5" filterUnits="userSpaceOnUse">
            <feOffset dy="1"/>
            <feGaussianBlur result="park_n" stdDeviation=".5"/>
            <feFlood flood-opacity=".1"/>
            <feComposite in2="park_n" operator="in"/>
            <feComposite in="SourceGraphic"/>
        </filter>
    </defs>
    <g clip-path="url(#park_a)" transform="translate(-567.7 -571.6)">
        <path fill="#e6e4e0" d="M567.7 571.6h154v100h-154z"/>
        <path fill="#b5dd97" d="M665.4 651l6.5-2 1.6 5.3 2.2-.5 1.6 6-9 2.8zm2.6-4.4c-1.4-.9-3.4-2.2-3.2-5.4a8.3 8.3 0 0 1 1.9-5l12.7-4.2a4.9 4.9 0 0 1 3.8.9 6.8 6.8 0 0 1 2.3 4.3 9.3 9.3 0 0 1-.7 4.9 5 5 0 0 1-2.3 2l-10.2 3.4a4 4 0 0 1-.4 0 8 8 0 0 1-4-.9zm-39.7-7.5l-.3-.9 3-1.2 1-2.3v-1.2l-.4-1-1.4-2.6-1.2-1.9-1.6-.6-3.4 1-3-7 .5-.6 1-1.2 38.9-22.3-2-7 3.5-1 14.2 28.1.2.4 9-4 1.6 3.6-.5.7-.9 1.5-1.6 1-1.4 1-24.3 8.3-5.8 1.8-1.7-.3-1.3.1-.8.4-1.5 1.6-16.6 7.2zm52.4-45.3a2.7 2.7 0 0 1-1.2-.7l-4.4-8-2.6-2.3a1.8 1.8 0 0 1-.4-2 1.7 1.7 0 0 1 1.7-1 3.9 3.9 0 0 1 2.2 1.3 15.2 15.2 0 0 1 1 2.8l3.2 4.2 1.7 1.4s1.3.8 1.5 1.6a2.8 2.8 0 0 1-.6 2.3 2.1 2.1 0 0 1-1.4.5 2.3 2.3 0 0 1-.7 0z"/>
        <path fill="#8aceec" d="M638.2 619s2-.7 2.6-1.7.5-3.9.9-4.5.5-1.7 1.3-1.8a12.7 12.7 0 0 1 3.3 1l3.2 1.5s.4.3 1.3 0 4.4-4.3 4.4-4.3l1.8-1a3.6 3.6 0 0 1 2.4 0c.7.2 4.2 2.4 5.3 2.7s3.5-.5 3.7-1.1-4.4-12.6-4.4-12.6a1 1 0 0 0-.9-.5 7.7 7.7 0 0 0-2 .7l-3 2.3-5 1.5-10.3 2-4.4 1.6-7.2 6.2-1.6 1.9-2.7 1.9-4 2.3a2.4 2.4 0 0 0-1.3.8c-.4.7-.8 1.4 0 2s4.4 1 5.2 1a35 35 0 0 0 5.7-2.2 3.4 3.4 0 0 1 1.8-.9c1 0 3 1.1 3.3 1.2a1.5 1.5 0 0 0 .6 0z"/>
        <path fill="#fff" stroke="#d6d9e5" stroke-width=".3" d="M574.2 671.6h-1.7v-1l-2.4 1h-2.3v-5l28.5-12.7 1.3-.5 3.4-1.9 1.8-1.6.7-1.9-8.8-20.6-1.8-.7-1-2.6-24.1 10v-1.5l3.1-1.5.4-.4-.5-.2-3 1.4v-1.8l.8-.2s.5-.3.8-1.4a3.5 3.5 0 0 0-.6-2.7v0l-1-2.5v-3.7l2.5 5.8.6-.4-3.1-7.1v-3.6l1 2 15.6-6 2.4-1.4-.6-1.5-1-.6-17.4 7.5v-8.6l1.3-.6v0l-1.3.6v-8.8l3.1 7.4-1.4.6h0l6.3-2.7-.3.2 1.4-3 3.8-2.4-5-11 .2-.6-1.4-4.6-2.2-4.8-2.4.7h-2.1v-.6l2-.2 6.7-1.7 3.4-.8 1.7-1 .6-.8h.7l-.5.6-1.7 1.3.6.4 3-1.6-.5-.7h.8l.8 2-.6.1-.3-.7-3.1 1.6-1.6-.7-6.8 2 2.2 4.6 1.3 4.7 2.3 5.4 2.9 6.3 2 2 32.6-14-1.2-2.4v-4.7l-3.8-4.7v-1.5h.8v1.4l3.8 4.7v4.7l1 2.2 7.6-3.2-1.7-4.3-1.5-.8-.8-1.9-3.4-2.8h1.4l2.4 2 1 1.8 1.5.9 2 4.7 22-9.4h21v0h3.8l2.4 6.6c.1 0 2.2.5 2.7 1.5a16 16 0 0 1 1.1 3l3 4h0a15.7 15.7 0 0 0 2.1 1.7 2.5 2.5 0 0 0 1 0l3.4-.1a.5.5 0 0 1 0 0l3.8-.8 2.6-.7.5-1-6 2-3.8-.6-1.7-.7-3.7-4.7-.5-.7-3.2-9.5h1.2l3 9.4 3.8 4.9 1.5.4 3.3.5 6-2 5.8-2.6-4.4-10.6h1.2l2.2 5.1a5.3 5.3 0 0 0 2.9 1.3h.2a6.3 6.3 0 0 0 2.4-.7l7-4.8-1-1h1.2l.5.6.6-.5h1.6l-7.3 4.8-.6 1.6.1.9.9.3 10.8-7.6h2.6l-1 .3-.3.9.7 1.5 1 .3v3.9l-.7-2-.7-.4-6.1 4-12.5 7.5 3 7.3 1.4-.4v0c-.1-.4-.3-1-.2-1.2l.4-.2 8-2-.1-.8-.4-.1-1-.6-.4-1 .4-1.2.6-.6 1-.1 1.3.8 6-2.1v1l-5.8 2v.9l-.6.6.3 1 4.7-1.5s0 0 0 0c.3.1.5.3.5.4l.8 3.1v.1h0v3l-1.5-5.5-2 .6 1.7 6h0v-.1h0a13.7 13.7 0 0 1 1.8-.6h0v1l-12.5 3.7h0a2.4 2.4 0 0 1-.6 0 .4.4 0 0 1 0 0c-.3 0-.5-.3-.5-.3l-1.5-5.5-1.9.8-.6-.5-3-7.5-1 .5-.4 1-4.3 1.4-4.5 1-1-.2-5 1.5h0v0a4.8 4.8 0 0 0-.3.6 2.4 2.4 0 0 1-.7.7h0l1.2 4.8 1.4-.3-1-4a.7.7 0 0 1 0-.5.3.3 0 0 1 .3-.1.5.5 0 0 1 0 0 .7.7 0 0 1 .6.4l1 4.9 2.5 6.3 5-1.8.5-.7-.6-3.8s0-.7.4-.9a.3.3 0 0 1 .1 0c.3 0 .5.4.5.7l.5 4.3v0a1.4 1.4 0 0 1-.1.7c-.2.3-1.1.7-1.2.7l-5.5 1.9-.7 1.4 2.7 6.4.9 1.1a22.2 22.2 0 0 1 3.7.6h0l4.2-1.6-.7-3-1.3-.7-.6-1.3.5-1.4 2-.4.8.5.5.9v.7l-.3 1-.7.4.7 3 20.6-7.7v6.4l-1.4 1v.8a2 2 0 0 1-.4 1h0l1.8 5.6v6l-3.6-11.4h0-.2 0a5.8 5.8 0 0 1-.6-.2l-1.2-.5h0l-11.8 4.5-.5 1 1.8 5.7.8.4 7.6-2.5.6.2 3.2 9.5h0a2.9 2.9 0 0 1-1 1.4 1 1 0 0 1-.3 0 2.3 2.3 0 0 1-.7-.1h0-.1 0a1.8 1.8 0 0 0-.5-.1.2.2 0 0 0 0 0h0a3.6 3.6 0 0 0-.8.4h0a.4.4 0 0 1 0 0v.1h0-.1 0a3.3 3.3 0 0 1-1 .7.4.4 0 0 1 0 0 2 2 0 0 1-1.4-.6l-3-8.9-1.7.7-.9 1.2 3.1 9.8 10.5-3.1 1.8.2v1.7l-1.5-.2-10.2 3.2 5.9 18.7 5.8-2v2l-5.3 1.7 2 6.2 3.3-1.1v.8l-3.1 1 1 3.3h-1.3l-.3-1-2.7 1H710l7.6-2.5-6.3-19.5-2.7.8 5.7 16.8-1 2.3-7.2 2h-4.3l10.5-2.8.9-1.5-5.4-16.4-13.4 4.4 5 16.4h-1l-4.8-16-13.3 4.2 3.8 11.8h-1l-3.6-11.3-.2-.1-14.6 4.8 2.3 6.6h-1l-2.1-6.3-1.1.4 1.8 5.9h-1.7l-2.5-7.5v-.1l-.8 1.1-18.9 6.5h-3l2.6-.6-1-2-8.1 2.6h-3.5L639 668l-3.3-8.4.6-1.5-15.2 6.8 2.8 6.6h-10l-4-9.2-.6-.5-1.1-2.9h-.2 0-.1a21.8 21.8 0 0 0-2.1-1.7 3.8 3.8 0 0 1-.5-.3h0a1.4 1.4 0 0 0-1-.4 4 4 0 0 0-.8 0 75 75 0 0 0-7.6 3.4l4.7 11.6h-1.9l-4.3-11L574 670l.2 1.7zm81.4-21.2h0l-.9 1.2-17.4 6.2-.7 1.6 4.3 11.3 18-6.4.7-1.3-4-12.6zm-53 5.2a10 10 0 0 0-2 .2 37.8 37.8 0 0 0-6.2 2.4l-20.7 9.5.2.5 11.6-5.3h0l.4-.2c8.2-3.8 12.6-5.7 13.5-6a8.8 8.8 0 0 1 3.1-.6 10.7 10.7 0 0 1 1.4 0 7.4 7.4 0 0 1 3.4 1.5v-.5s-1.7-1-2.3-1.2a8.2 8.2 0 0 0-2.4-.3zm58.8-5.4l-3.7 1.2 3 10.2.8.2 1 3 4.1-1.3-4.8-13.1zm-32.6-1.7l-11.4 4.6-.6 2.1 4 9.1 13.5-6.1-2-1.7-2-4.7-9.5 4.7h0c-.2 0-.6 0-.7-.2-.2-.3.1-.7.1-.7l9.7-4.7-1-2.4zm32.7.5h0l1.2.6 4.8 13.6 25.8-8.6-4.8-15.7.8-1.6 16.2-5.4-3.2-10.2-.7-.2h0s-6 1.7-6.5 2a1.5 1.5 0 0 0-.4.6h0a2.6 2.6 0 0 1-1.2 1.3 2.4 2.4 0 0 1-1 .2 5.4 5.4 0 0 1-1.8-.3l-34.8 12a3.1 3.1 0 0 0-1 1 3.2 3.2 0 0 1-1 1l3.4 11 4.2-1.3zm-20.9-5.4l-11 4.5 3.3 7.9 2 1.8 9.6-3.4-3.9-10.8zm-26.4 8.8l-1.1.5.7 1.4.4-1.9zm88-18.4l-12.3 4-.4 1 4.6 15.3 13.3-4.3-5.1-16zm-51.6 5.6h0l-9.3 3.7 3.9 10.8 9-3.2 1-1.7-2.8-9.2h0a3.4 3.4 0 0 1-.4 0 2.2 2.2 0 0 1-.4 0 3.6 3.6 0 0 1-1-.4zM603 652.4a11.5 11.5 0 0 1 2.8.6l-.3-.2-1.4-3.2-.6 1-2 1.6-.3.3a.4.4 0 0 1 0 0h.1a37.6 37.6 0 0 1 1.7 0zm8-3.8h0l.8 1.6 2-1a8.4 8.4 0 0 1-.7 0 2.8 2.8 0 0 1-.4 0 5.4 5.4 0 0 1-1.7-.6zm94.7-15.9l-2.8 1 5.3 16 2.7-1-5.2-16zm-114-20h0l15.8 36.6.3-.4-16.2-36.2zm17.6-13l-5.8 2.3-11.5 4.3 18.3 40.7 1.2 1h0a6.1 6.1 0 0 0 1.8.3.2.2 0 0 0 0 0h.1a40 40 0 0 0 4.6-1.5l7.2-3.3.6-1 .9-2.7-1-2-2.4-6.1-3.2 1.5h0c.2.4.4.9.1 1a.3.3 0 0 1-.1.1c-.4 0-.7-.6-.7-.6l-4.5 2-1.7-.7-1.8-3.8s-2.4-5.1-2.4-5.4a.7.7 0 0 1 .3-.4l9.5-4.4-4.5-9-4.8-11.8-.2-.5zm18.8 41.3l-.4 1.6 1.7-.8zm-.8-13.5h0l1.4.6 2.8 6.3-.8 2.2-2.6 1-.4.6.4 1 3.2 1.7h0l12.4-5.3s4.3-1.8 4.5-2.2a4.9 4.9 0 0 1 2.1-1.8 2 2 0 0 1 .8-.1 5.9 5.9 0 0 1 2 .5l29.2-9.8h0a36.4 36.4 0 0 0 3.6-2 5.2 5.2 0 0 0 .6-.9h0v-.1 0h0a11 11 0 0 1 1.4-1.7l-1.7-3.9-8.9 4-10-20.6a21.8 21.8 0 0 0-4-1 1 1 0 0 0-.2 0c-.8 0-1.9 1.3-1.9 1.3l-3.7 2.7h0a15.5 15.5 0 0 1-2.7 1c-.9.3-3.9.8-8.7 1.6h-.2 0l-4 1a18.6 18.6 0 0 0-3.4 1.4l-7.3 6.3-.5.4-.6.5v.1l-.4.3-.6.5-.5.4v.2l-5.2 3.9-1.5 1.3-1.3 2.2 3.2 7.4v0l3.5-1zm-2.7 1.7l-.5.2 3.3 8 .4-.4-3.2-7.8zm27 5.4a1 1 0 1 0 1 1 1 1 0 0 0-1-1zm-24.5-6.2l-1.8.6 3.2 7.5 1.6-.7.6-1.2-2.7-6zm84.5-1.8l-1.9.6 2.9 8.4.5.3 1.4-.8-2.9-8.5zm2.3-.7l-1.6.5 3 8.4a2.5 2.5 0 0 0 .8.3.9.9 0 0 0 .2 0h0a.5.5 0 0 0 .4-.4 1.3 1.3 0 0 0 0-.3l-2.8-8.5zm-101.6-.9l-2.2 1 3.6 8.3 1 .5 1.4-.7-3.8-9zm2.7-1.3l-1.8.9 3.8 9 2-.9-4-9zm4.2-1.9l-3.4 1.6 4 9 3.2-1.6-3.8-9zm-27.2-.5h0l-.6.7-17.6 7.3-.2.3h.5l17.5-7.1h1l-.6-1.2zM706 628l.2.7.4-.5zm-135.2-1.5h0l.7 2.1.8-.3-.4-1-1-.8zm16.3-16.7h0l-2.5 1.4-15.6 6 4.1 9 2 1 15.2-6.3-3.8-9v-.1c0-.2 0-.5.2-.7a.3.3 0 0 1 .1 0c.3 0 .7.5.8.5l3.6 9 .4-.3-4.5-10.5h0zm5.6 14.3l1 2.1.6.3-1-2.4zm98.6-4.2a1 1 0 1 0 1 1 1 1 0 0 0-1-1zm-30-35.3l-1.7.8-7.5 1.5-7 1.5-3.5.6-7.8 3.5-3 1.5-3.4 2-4.9 4.8-3 2.9-1 .8-4.5 2v.1l2.3 5.3 1.4 1 2.9 4-.3 3.4 1-2 1.6-1.4 5.5-4.2 6-5.2 3.8-3a21 21 0 0 1 3.8-1.8l8.4-1.7h0a36.2 36.2 0 0 0 5.7-1.1 19 19 0 0 0 3.8-2.5h0l1.3-1c.2-.2 1.1-1.1 2-1.1a.8.8 0 0 1 0 0c.9 0 3.5.9 3.7 1l-5.2-11-.3-.7zM617 613.4l2.5 5.2.3-1.6-2.8-3.6zm50-24.2l-2 .9.8 1.6 12 24.9 2-1-12.8-26.4zm13 5.9h0l9.5 21.4a2.5 2.5 0 0 1 .4-.2 2 2 0 0 1 .3 0h0l-6.1-14.3-1.6-6.6-1.2.5-1.3-.8zm-9-7.5l-3 1.3 12.8 26.3 2-1-9.3-21.3-2.4-5.3zm9.6 12.8l-2.4 1 5.5 12.4 2.3-1-5.4-12.4zm19.4 8.8h0l-1.1.2h0v.1h0a2 2 0 0 1-.2.4l.2.9.8.3.8-.6v-.8l-.5-.5zm-12-2.4h0l.2.6.3-.4zm-1.3-6.7l-1.3.2.3 1.5 1.8 4.1 1.5.3-2.3-6zm-80.1-2.6l-15.9 6.9 1 1.3 1.7-.6 9.3-3.6 5-1.9 1.3-.6-.5-1-2-.5zm10.7-1.4h0l-5.1 2.5-1.2.4 2.6 6.6 3.8-1.7h0v0a8.7 8.7 0 0 1-1-2 2 2 0 0 1 .2-1.2l2.7-2.6h0l-1.4-1.5-.6-.5zm.2 5h0s0 0 0 0h0v0h0a.9.9 0 0 0-.3.5 19 19 0 0 0 1 1.9h0l3.3-3.1-1.6-1.7-2.4 2.4zm-36.4-3.4h0l-3.6 2.4-.7 1.7 5.6-2.4-1.3-1.7h0zm92.6-11.9h0l2.7 6.4a.4.4 0 0 1 0 .3 13.7 13.7 0 0 1-1.8.8l3.3 7.4 2.4-1-3-7-3-6.2-.5-.7a.1.1 0 0 1 0 0zm35.3 7.5l-2 .6 1.9 6.2 1.7-.5zm-85 1.6a.7.7 0 0 0-.4 0 43 43 0 0 0-3.2 3.3l1.6 1.7.2-.2 3.3-3 .8-.8-2-1a.7.7 0 0 0-.3 0zm88.1-2.3l-2.3.6 1.7 6.2 2.3-.7zm3-.8l-2.1.6 1.6 6 2.1-.5zm-46.7-20.2l-21 8.3-36 15.6-.9 1.7.3 1 2.7-1.1 6.3-2.8 12.4-5.6 8.3-3.8 6.4-2.9 9.7-4.3 12-5.6-.2-.5zm49 19.6l-1.5.5 1.5 6 1.7-.5zm-59.3-13.5l-1.8.8-11.5 5.3-11.2 5-15.7 7 1 .8.9 1 1.3-1.4a14.7 14.7 0 0 1 1.8-1.9 8 8 0 0 1 1.5-.4l2.6 1.3 3.6-2.3 4.5-2.2 4.5-2 2.6-1 4.4-.9h.3v-.2h0v-.1h0v-.1a1.2 1.2 0 0 1 .1-.2v-.2h0v-.1l.2-1a4 4 0 0 1 1-1.7 5.4 5.4 0 0 1 1.6-.6h0l.4-.1h0l5.7-1 3.5-1-1.3-2.8zm15.7 2a1.7 1.7 0 0 0-1.7 1.2 1.7 1.7 0 0 0 .4 2c.2 0 1 .8 2.6 2v.1l4.4 8v0a2.8 2.8 0 0 0 1.2.8 2.8 2.8 0 0 0 .7.1 2.2 2.2 0 0 0 1.5-.5 2.9 2.9 0 0 0 .5-2.3c-.2-.7-1-1.4-1.5-1.6h0l-1.7-1.4-3.2-4.2v0h0a10.9 10.9 0 0 0-1-2.8 4 4 0 0 0-2.2-1.3zm-2.3 6.9a.4.4 0 0 1 .3 0 72 72 0 0 1 2.4 5.7v.1l.1.2 1.3-.6-2.4-6-3-1.4-1.7.7v0a2 2 0 0 1-.2.8 7 7 0 0 1-1.4.5h-.8l-.6-.4-.6-1 .1-.5.2-.4-.8-1.1-.3.1-2 1 1.3 2.7 1.2 2.2 6.5-2.6a1.4 1.4 0 0 1 .4 0zm13.2 3.4l.3 1.6 6.7-2 7.3-2.2 4.6-2.4 15.4-10.2-.4-1-10.3 7.4-7.8 4.9-2.2 1-8.5 2.5-3.4.5h-1.7zm14.5-1l-7 2v.2zm15.5-1.2h0-.7l-.4.2-.2.6.3.6.6.1.5-.1.3-.5-.1-.6-.3-.4zm-54.9-6.5l-1.6.6-3.8.8-5.2 1a1.9 1.9 0 0 0-.7.7 6.8 6.8 0 0 0-.4 2.2l3.4-.7 5.5-1 2.5-.6 1.5-.6zm41.5 1.5l-5.6 2.6-.4 1.1h.2l4.7-2.3 2-1.2zm-34.2 1.5a1.7 1.7 0 0 0-.6.2 1.3 1.3 0 0 0-.6.5.3.3 0 0 0 0 .3 1 1 0 0 0 .7.4h0a1.4 1.4 0 0 0 1-.6c.2-.2 0-.6-.3-.7a.2.2 0 0 0-.2 0zm3.4-1.4h0l-.3.5-2 .8v.4l2.2-1h.3a3.4 3.4 0 0 1-.2-.7zm-4.6-.4l-.7.3.6 1.2.5-.2zm1.6-5.2h0c.4 0 1 .6 1 .7a.2.2 0 0 0 0 0h0a7.7 7.7 0 0 1 .9 1.4l-.4 1.2h0l-1.5 1.2-.8.3.2.7a.6.6 0 0 0 .3.6.4.4 0 0 0 .2 0 3 3 0 0 0 1-.2h0l1.5-.6.5-1.2v-.2a6.3 6.3 0 0 1 1-2.1h0l-2.5-6.2-4.3 1.8-5.8 2.7 1.4 2.9 2.7-1 3.6-1.6a2.6 2.6 0 0 1 1-.4zm-.1 1a26.3 26.3 0 0 0-3 1.2h0l-3.8 1.5 1.1 2.4.7-.3 4.5-2.2 1-.4.4-1-.4-1h0a.9.9 0 0 0-.5-.1zm35.6 3.8l.4.1 2-1.2 1.7-1.2-.7-.4-.4-1.1.4-1h0c-.3.2-2.8 1.7-4 1.7a1.4 1.4 0 0 1-.3 0 6.7 6.7 0 0 1-2.3-1h0l1.6 4zm14.6 23.4h0a3.5 3.5 0 0 1-2-.8 2.3 2.3 0 0 1-.6-1.9 2.5 2.5 0 0 1 1.4-1.6l.1-.1h.1a2.5 2.5 0 0 1 .8-.2 2.7 2.7 0 0 1 .8.1 1.5 1.5 0 0 1 1 1l2.5-1.2v1a11.7 11.7 0 0 0-2 1v0a5.9 5.9 0 0 1-.5 2 3 3 0 0 1-1.6.7zm-.2-3.6a1.3 1.3 0 1 0 1.4 1.4 1.3 1.3 0 0 0-1.3-1.4zm-120-9h0l-1-2h-1.9l-1.2.7-1.5.7-1.3.2-.8-.4.4-.7h1.4l1.8-.9 1.1-.6 1.8.2-.6-1.3-.5.2-3.6-1-1.6-3.1 1-3.6 2.6-1.6 3.6.5 1.9 1.8.5 2-1.3 3.4-.9.8.5 1.2 5-3 8.2-3.7-4.9-11.1h1l6.3 14.4-1 .5-1-3-8.3 3.7-5 3 1 1.9-1.8.8zm0-2.4l-.1.1.6 1.5h.3zm-.8-2.1l-.3.1.6 1.6.4-.2zm-2.8-7.7h0l-2.2 1.3-.7 2.9 1.3 2.4 3 .9 2.1-1 1.2-3.3-.4-1-1.3-1.7-3-.5z"/>
        <path fill="none" stroke="#d6d9e5" stroke-linejoin="round" stroke-width=".3" d="M605.6 652.9a52.6 52.6 0 0 1 4.9 2.2 12.3 12.3 0 0 1 3.7 3.7l5.5 12.8m-12.4-14.2a13 13 0 0 1 3.5 2.6c1.2 1.5 5.1 11.6 5.1 11.6"/>
        <path fill="rgba(65,89,221,0.07)" d="M567.7 614.4l17.6-7.6a.5.5 0 0 1 .6.2l1.8 4.2 17.7 40.5s.1.3-.4.6-1 0-1.5 0a37.7 37.7 0 0 0-5.1.7 95 95 0 0 0-6.9 2.8l-23.8 10.8zm56 57.2l-6.9-16.4.6-2.2 33.4-13.5a3.7 3.7 0 0 0 1 .4 1.9 1.9 0 0 1 .8.2l7.2 23.3.7.8 2.3 7.4z"/>
        <path fill="rgba(65,89,221,0.1)" d="M654 639l2.3-1.9c.5-.4 24.8-8.4 24.8-8.4l10.1-3.6a2.8 2.8 0 0 0 1.6.5c.7-.2 1.6-1.6 1.6-1.6a6 6 0 0 1 1.4-.7l5.7-2a.9.9 0 0 1 .7.7l16 49.6h-53.6l-3.1-9.8-.7-.5z"/>
        <path fill="rgba(65,89,221,0.18)" d="M590.8 604.5l20.8-8.8 33.6-15.2 23-9 3 7.8-.6 1.8a3 3 0 0 0 .4 2.3c.8 1.1 1.5.9 2.7 2s2 3.5 4 7.9 3.7 9 3.8 9.4l6.7 15a2.3 2.3 0 0 0-.8 1 9.5 9.5 0 0 1-1.1 1.5l-3 1.5-30.1 10.2a6.6 6.6 0 0 0-3-.2c-1.2.3-2.2 2-2.2 2l-36.3 16.5-4.5-11.2.1-2-8.5-18.7-1-.7-2.1-4.6-1.9-2.3z"/>
    </g>
    <g filter="url(#park_c)">
        <g fill="none">
            <path d="M103 28a11 11 0 1 1-11 11 11 11 0 0 1 11-11z"/>
            <path fill="#fff" d="M103 30a9 9 0 1 0 0 18 9 9 0 0 0 0-18m0-2a11 11 0 1 1 0 22 11 11 0 0 1 0-22z"/>
        </g>
    </g>
    <g filter="url(#park_e)">
        <g fill="none">
            <path d="M103 28a11 11 0 1 1-11 11 11 11 0 0 1 11-11z"/>
            <path fill="#fff" d="M103 30a9 9 0 1 0 0 18 9 9 0 0 0 0-18m0-2a11 11 0 1 1 0 22 11 11 0 0 1 0-22z"/>
        </g>
    </g>
    <path fill="#8793de" d="M103 30a9 9 0 1 1-9 9 9 9 0 0 1 9-9z"/>
    <path fill="#fff" d="M107.8 42.8h-1.3v-1.3a1.3 1.3 0 0 0 .4 0 1.6 1.6 0 0 0 .7-3 1.6 1.6 0 0 0-2.5-.9 3.1 3.1 0 0 1 0 .6 2.9 2.9 0 0 1-1.2 2.4 1.6 1.6 0 0 0 1.4 1 1.5 1.5 0 0 0 .4-.1v1.3h-3.9v-2.3a2.4 2.4 0 0 0 1.7-4.4 2.4 2.4 0 0 0-4.7 0 2.4 2.4 0 0 0 1.2 4.5 2.2 2.2 0 0 0 .6 0v2.1a.2.2 0 0 0 0 .1h-2.4a.5.5 0 0 0 0 1h9.6a.5.5 0 1 0 0-1z"/>
    <g>
        <g filter="url(#park_g)">
            <g fill="none">
                <path d="M61 45a11 11 0 1 1-11 11 11 11 0 0 1 11-11z"/>
                <path fill="#fff" d="M61 47a9 9 0 1 0 0 18 9 9 0 0 0 0-18m0-2a11 11 0 1 1 0 22 11 11 0 0 1 0-22z"/>
            </g>
        </g>
        <g filter="url(#park_i)">
            <g fill="none">
                <path d="M61 45a11 11 0 1 1-11 11 11 11 0 0 1 11-11z"/>
                <path fill="#fff" d="M61 47a9 9 0 1 0 0 18 9 9 0 0 0 0-18m0-2a11 11 0 1 1 0 22 11 11 0 0 1 0-22z"/>
            </g>
        </g>
        <path fill="#8793de" d="M61 47a9 9 0 1 1-9 9 9 9 0 0 1 9-9z"/>
        <path fill="#fff" d="M65.8 59.8h-1.3v-1.3a1.3 1.3 0 0 0 .4 0 1.6 1.6 0 0 0 .7-3 1.6 1.6 0 0 0-2.5-.9 3.1 3.1 0 0 1 0 .6 2.9 2.9 0 0 1-1.2 2.4 1.6 1.6 0 0 0 1.4 1 1.5 1.5 0 0 0 .4-.1v1.3h-3.9v-2.3a2.4 2.4 0 0 0 1.7-4.4 2.4 2.4 0 0 0-4.7 0 2.4 2.4 0 0 0 1.2 4.5 2.2 2.2 0 0 0 .6 0v2.1a.2.2 0 0 0 0 .1h-2.4a.5.5 0 0 0 0 1h9.6a.5.5 0 1 0 0-1z"/>
    </g>
    <g>
        <g filter="url(#park_k)">
            <g fill="none">
                <path d="M124 70a11 11 0 1 1-11 11 11 11 0 0 1 11-11z"/>
                <path fill="#fff" d="M124 72a9 9 0 1 0 0 18 9 9 0 0 0 0-18m0-2a11 11 0 1 1 0 22 11 11 0 0 1 0-22z"/>
            </g>
        </g>
        <g filter="url(#park_m)">
            <g fill="none">
                <path d="M124 70a11 11 0 1 1-11 11 11 11 0 0 1 11-11z"/>
                <path fill="#fff" d="M124 72a9 9 0 1 0 0 18 9 9 0 0 0 0-18m0-2a11 11 0 1 1 0 22 11 11 0 0 1 0-22z"/>
            </g>
        </g>
        <path fill="#8793de" d="M124 72a9 9 0 1 1-9 9 9 9 0 0 1 9-9z"/>
        <path fill="#fff" d="M128.8 84.8h-1.3v-1.3a1.3 1.3 0 0 0 .4 0 1.6 1.6 0 0 0 .7-3 1.6 1.6 0 0 0-2.5-.9 3.1 3.1 0 0 1 0 .6 2.9 2.9 0 0 1-1.2 2.4 1.6 1.6 0 0 0 1.4 1 1.5 1.5 0 0 0 .4-.1v1.3h-3.9v-2.3a2.4 2.4 0 0 0 1.7-4.4 2.4 2.4 0 0 0-4.7 0 2.4 2.4 0 0 0 1.2 4.5 2.2 2.2 0 0 0 .6 0v2.1a.2.2 0 0 0 0 .1h-2.4a.5.5 0 0 0 0 1h9.6a.5.5 0 1 0 0-1z"/>
    </g>
</svg>
