<svg xmlns="http://www.w3.org/2000/svg" viewBox="0 0 154 100">
  <defs>
    <clipPath id="school_a">
      <path fill="#fff" stroke="#707070" d="M4 0h146a4 4 0 0 1 4 4v96H0V4a4 4 0 0 1 4-4z" transform="translate(1)"/>
    </clipPath>
    <filter id="school_b" width="40" height="40" x="23" y="41" filterUnits="userSpaceOnUse">
      <feOffset dy="3"/>
      <feGaussianBlur result="school_c" stdDeviation="3"/>
      <feFlood flood-color="#222" flood-opacity=".1"/>
      <feComposite in2="school_c" operator="in"/>
      <feComposite in="SourceGraphic"/>
    </filter>
    <filter id="school_c" width="25" height="25" x="30.5" y="46.5" filterUnits="userSpaceOnUse">
      <feOffset dy="1"/>
      <feGaussianBlur result="school_e" stdDeviation=".5"/>
      <feFlood flood-opacity=".1"/>
      <feComposite in2="school_e" operator="in"/>
      <feComposite in="SourceGraphic"/>
    </filter>
    <filter id="school_d" width="40" height="40" x="46" y="4" filterUnits="userSpaceOnUse">
      <feOffset dy="3"/>
      <feGaussianBlur result="school_g" stdDeviation="3"/>
      <feFlood flood-color="#222" flood-opacity=".1"/>
      <feComposite in2="school_g" operator="in"/>
      <feComposite in="SourceGraphic"/>
    </filter>
    <filter id="school_e" width="25" height="25" x="53.5" y="9.5" filterUnits="userSpaceOnUse">
      <feOffset dy="1"/>
      <feGaussianBlur result="school_i" stdDeviation=".5"/>
      <feFlood flood-opacity=".1"/>
      <feComposite in2="school_i" operator="in"/>
      <feComposite in="SourceGraphic"/>
    </filter>
    <filter id="school_f" width="40" height="40" x="73" y="49" filterUnits="userSpaceOnUse">
      <feOffset dy="3"/>
      <feGaussianBlur result="school_k" stdDeviation="3"/>
      <feFlood flood-color="#222" flood-opacity=".1"/>
      <feComposite in2="school_k" operator="in"/>
      <feComposite in="SourceGraphic"/>
    </filter>
    <filter id="school_g" width="25" height="25" x="80.5" y="54.5" filterUnits="userSpaceOnUse">
      <feOffset dy="1"/>
      <feGaussianBlur result="school_m" stdDeviation=".5"/>
      <feFlood flood-opacity=".1"/>
      <feComposite in2="school_m" operator="in"/>
      <feComposite in="SourceGraphic"/>
    </filter>
  </defs>
  <g clip-path="url(#school_a)" transform="translate(-1)">
    <path fill="#e6e4e0" d="M1 0h154v100H1z"/>
    <path fill="#fff" stroke="#d6d9e5" stroke-width=".3" d="M84.7 100h0-7.2l-15.8-9.6h0v0h0v-.1 0a.3.3 0 0 1-.1 0h0l-.1-.1-8.3-5a8 8 0 0 0-1.5-.1h-1.2a4.5 4.5 0 0 0-.9 0 2.1 2.1 0 0 0-1.2.6 11.8 11.8 0 0 0-1.5 1.8h0v0L39.7 100h-2l7.9-13.8 1.3-1.2-1.1-1-.6 2.2L36 100h-2.4v0h0v0h0v-.1h.1v0h0v0h0v-.1l.3-.3v-.2 0h.1v-.1h0l.1-.1v0h0s0 0 0 0h0V99h0v0h.1a3.2 3.2 0 0 1 .4-.7h.5l7.3-10.7a.9.9 0 0 1 0-.1 20.5 20.5 0 0 0 1.3-2.2A9.4 9.4 0 0 0 44 83a3.5 3.5 0 0 0-.2-.7v0-.1 0h0V82a6.3 6.3 0 0 1-.3-2v-.2 0a.2.2 0 0 1 0-.1.2.2 0 0 1 0 0 .8.8 0 0 0 0-.2l-.3-.8h0-.1l-1-.8-10.8-6.6-.1-.1-.4-.3-.3-.1-1.2-.8h-.2 0a.5.5 0 0 0 0-.1h0-.1 0l-7-4.4a.6.6 0 0 1-.1-.4.2.2 0 0 1 .1-.2.4.4 0 0 1 .3-.1 1.1 1.1 0 0 1 .4 0h0L44 78.2a3.8 3.8 0 0 1 .6-1 2.7 2.7 0 0 1 .6-.5h0a.3.3 0 0 0-.2 0 .2.2 0 0 0 0 0h-.1a1 1 0 0 0-.3 0h0a2.6 2.6 0 0 1-.7-.2L24.7 65h0v-.1h0-.1 0l-.1-.1-.2-.1h0l-.1-.1a96.6 96.6 0 0 0-1.7-1.1 8.6 8.6 0 0 1-.8-2 1.5 1.5 0 0 1 0-.8l.5-.8 4-6.2.3-.5h0-.2V53h0a.4.4 0 0 0-.1 0h0l-.1-.1H26l-.1-.2h0-.1 0-.1v-.1h-.2 0l-.2-.2h0-.1 0l-.2-.2h0a1.4 1.4 0 0 0-.2 0V52h0l-.2-.1-.2-.2-2.6-1.6-1.3-.8-.2-.1h0l-.7-.5h-.3l-.2-.3-.8-.5h-.1l-.4-.3h-.1-.1 0v-.1h0a.5.5 0 0 0-.1 0h0a1.6 1.6 0 0 1-.1-.1h0a1.7 1.7 0 0 0-.1-.1l-.5-.3-1-.7L5.3 40l-.6-.4a4.6 4.6 0 0 1-1.4-1.5 2 2 0 0 1 0-1.2 5.8 5.8 0 0 1 .5-1.2v0L6.7 31 13 20.5l5-8.5.8-1.5-9.2-5.8v0A7.8 7.8 0 0 0 8 4.5a.6.6 0 0 0-.2 0c-.3 0-1 .9-1 .9L1 15V8.5l2.9-4.9v0A4.5 4.5 0 0 1 5.5 2a2.8 2.8 0 0 1 1.4-.3 5.2 5.2 0 0 1 1.4.2h0l2 1 9.5 6 .6-1.1 4-6.5-.7-.3L21 0h2a41.5 41.5 0 0 0 1.8.6v0h.1l.5-.7h1l-.7 1.2a11.7 11.7 0 0 1 1.8 1.2s3.7 3 4 3.5a12 12 0 0 0 1.8 1h0V7h.1l9.4 5.8h.2l.7.3h.5v.1a148.8 148.8 0 0 0 4 1.4h.2v0h0l1 .7.7-1h0L29.1 0h1.5l19.9 13.8L58.4 1l.1-1h5.1-.3l19.2 11.5 1 1.1.4-.7-1.4-.7L63.5 0h3.6l15.2 9.3v0a19.7 19.7 0 0 0 2.1 1 .5.5 0 0 0 .1 0L86 10h0a3.4 3.4 0 0 1 1.1-.5 6.6 6.6 0 0 1 1.4-.2l1.5-1 .7-1L95 0h2l-5.7 9.4-1 .8.7.2.5.7.2-1.7L97.2 0H97h2.2l-5 8.2-1 1.9-.3 2.3a2.4 2.4 0 0 0 .3.7h0v.1a3.6 3.6 0 0 1 .3.7 3.4 3.4 0 0 1 0 .8v.1h0v.3a5.8 5.8 0 0 0 .6 1.1l1.7 1.4 49.3 30h0a6.5 6.5 0 0 0 2 .7 1 1 0 0 0 .2 0 6.2 6.2 0 0 0 1.4-.6h0a4.2 4.2 0 0 1 .8-.3 15 15 0 0 1 2.3-.4l1-1 2.2-3.6v15.3h0-.4a1.4 1.4 0 0 0-.3 0 3.3 3.3 0 0 0-.8.3h0-.1 0-.1 0l-.1.1h0-.1v.1h-.2 0-.1l-.8.4a5 5 0 0 1-1 .1h-.3a7.3 7.3 0 0 0-1.5 0 2 2 0 0 0-1.1 1l-6.6 11 4 2.4 2.4 2.4 2.5 2.7h0a21 21 0 0 0 1.4 1.3v0h0s0 0 0 0a10 10 0 0 0 1.9 1.2l1 .2h.2v1h0a9.4 9.4 0 0 1-1.5-.3A20.4 20.4 0 0 1 151 80l-5-5.2a24.8 24.8 0 0 0-1.2-1.3l-3.7-2.2h0L123.9 100h-3.6l.7-1.1-22.2-13.5L90 100h-1.1l9-15.1-36.2-22.1-5.4 9-2.4 4-.3 1.3v2.4l.4.7 1.6 1.8 29 18h0zM53 82h0v.8l-.7.5 1.6.4 11.3 7 15.5 9.4h.6l-12.9-8-14-8.8L53 82zm62-23.8h0L99.3 84.6l22.2 13.6 16-26.6L115.1 58zm-37-22.7h0L63.3 60l-1 1.8 36.1 22.2 16-26.5-36.3-22.2zM48.7 77a3.3 3.3 0 1 0 3.4 3.3 3.3 3.3 0 0 0-3.4-3.3zM85 19h0v1l-3.6 5.7-6 10.4L67.6 49 52 75l-1 .8 1 1 .2-1.6 1.7-2.7 13.2-21.8L81.8 26l4-6.3-.8-.6zM46.2 75.7h0v.1a4 4 0 0 1 .8-.3 7.7 7.7 0 0 1 2-.2l2-1.7.5-.7 3.7-6.3 11.3-19 3.5-5.8h-.2l-10.5-6.4-3 4.5-8.2 13.3v.1H48h0v.1a.3.3 0 0 0 0 0v0h0a.1.1 0 0 0-.1.1v0h0c-3 4.8-5 7.8-5 8a4 4 0 0 1-1 0h-.6a23.2 23.2 0 0 1-2.4-.9L27 53.4c-2.6 4.2-4.5 7.2-4.5 7.4a2.5 2.5 0 0 0 .2 1.3v.1a4 4 0 0 0 .9.9h0v0L43 75h0l1.4.7a2.3 2.3 0 0 0 .6 0h1.1a.2.2 0 0 1 0 0zm80-35.9h0l-10.6 17.5L137.7 71l5.4-9 2.3-4v0-.2h0v0a11.2 11.2 0 0 0 .3-1.3 8 8 0 0 0-.3-1.2h0v0a4.6 4.6 0 0 1-.2-1 3.7 3.7 0 0 1 0-.7v-.4a6 6 0 0 0-.1-1.2c-.2-.5-1-1.1-1.2-1.4l-17.7-10.7zM40.8 60.5h0a7.4 7.4 0 0 0 1.2.2 1 1 0 0 0 .2 0 1.5 1.5 0 0 0 .5-.6v0h0l1.6-2.4 5.3-8.5 5.4-8.7 3.4-5.7L43.7 26h0l-8.1 13.6-.2.1v0h0v.1a1955 1955 0 0 0-8 12.9l4.8 3 6.8 4 1.8.8zm106.6-3.1h0l-.5.9-.5.9.5-.7 1-.8-.5-.3zM87 20.9h0v0h0v0l-2.4 3.5-4.6 7.8-1.4 2.4 36.3 22.2 10.5-17.5-26.3-16-5.1-3-1.8-.7h0-1.5a1.1 1.1 0 0 0-.4.3h0-.2 0v.1H90l-.3.2h0a1 1 0 0 1-.2 0 3.1 3.1 0 0 1-.4 0H89h0a2 2 0 0 0-.4 0h-.3a8.9 8.9 0 0 0-1.2.7zm-55.2-2.2h0L15.7 45.4l7.9 5 3.3 2 5.5-9.2 10.2-16.9.4-.8-9.3-5.6-1.9-1.2zM144.4 49h0l1.2.9.4.4.2-.5-.6-.1zM155 46h0L153 48l1 .6v-1l.9-1.4zm-135.4-35h0L17 15.2 8.3 30.2 4.6 36a3.3 3.3 0 0 0-.3 1.7 1.6 1.6 0 0 0 .6 1v0l5 3 5 3.2L31 18.3 19.6 11zm44.9 14h0l-4.3 8.7 10.7 6.5L78.7 27l2.8-4.4h-.1 0a1.7 1.7 0 0 0-.3-.2h0a.1.1 0 0 0 0 0v0a.7.7 0 0 0-.3 0 1.3 1.3 0 0 0-.7.2 3 3 0 0 0-.7 1l-2 3.4h0s0 0 0 0v0a5.5 5.5 0 0 1-2 1.3 6.2 6.2 0 0 1-1 0h-1.5 0c-.5 0-2.8-1-3.3-1.1a62 62 0 0 0-3.4-1.2h0l-1.7-1zm-14.8-8.5h0l-5 7.7v.1l14.6 8.9 4.4-8.5-2.5-1-4-1.6-2-1.4-3.7-2.7-1.8-1.5zM69 26h0c.3 0 1 .4 1.8.7h.2l.2.1.2.1h.2v.1h.2l1 .5a3.4 3.4 0 0 0 .7 0 11.2 11.2 0 0 0 2.1-.2 3.9 3.9 0 0 0 1-.9h0l2.6-4a2.2 2.2 0 0 1 1-.8 1.5 1.5 0 0 1 .4 0 .8.8 0 0 1 .4 0l.8.4h0l1-1.8v0a7 7 0 0 0 .4-2 13.9 13.9 0 0 0-.3-2.2 4 4 0 0 1-.1-.7v0h0v-.1h0v0h0v-.1a5.3 5.3 0 0 0-.4-1.3 5.5 5.5 0 0 0-1.4-1.3h0v0L60.7.6h0l-1.7 1-7.7 12.5a5 5 0 0 1 .6.3h.1l.4.2 1.4.7.4.1 1.7.8h0l.8.4 7.8 3.5a9.7 9.7 0 0 1 1 1.4v2l-.7 1v0h0l1.2.7 2 .6h.4l.2.1h.1l.2.1h.2zM50.8 14.7h0l-.7 1v.1l4.2 3.4 3 2.1 3.2 1.3 3 1.2.6.3.5-1.4a2.2 2.2 0 0 0-.2-1.1 2.3 2.3 0 0 0-.7-.7l-2.4-1.1-10.5-5zM25.3 1.8l-.6 1-4.2 6.7 15.8 9.9L44 24l4.8-7.9.1-.1h0l-1.5-1-2.8-.7-2.2-.9-5.4-3.2-5-3-1.4-1-4.7-4-.6-.4zm67.5 15.5h0l-.4.6 2.1.9-1.7-1.5zm-4.7-6.1a3.7 3.7 0 1 0 3.7 3.7 3.7 3.7 0 0 0-3.7-3.7zM6 3.6h0L4.4 5.7 1 12l3.5-6.1 1.6-2.3h0zm.1 96.4H4L1 96.4v-4.3l1 1.7.4 1.8 3.8 4.4h0zm-3 0H1v-2.8l2.3 2.8h0zM1 85.4h0V83l13.3-9.3 4.6-7.3a17.6 17.6 0 0 0-.1-2.3 10.2 10.2 0 0 0-1.4-1V63l-8-4.7-8.4-5v-2l18.4 11 .6.9v-1l-2.2-1.4L1 51v-2L19 59.4a.7.7 0 0 0 0 0l.3.2h0v0h.1v.1h.1l.1.1.3.2 1.4 1a7.7 7.7 0 0 1 .7 2 8 8 0 0 1-.1 2v0l-1 1.7-5 8.2L1 85.4zm146.6-49.9a4.4 4.4 0 0 1-.6 0h0L116.2 17h0a7 7 0 0 1-1.7-1.6 2.3 2.3 0 0 1 0-1.3h0v0a4.4 4.4 0 0 1 .5-1.3h0l7.3-12-1.2-.8h1.6L146 14l8.5-14h.5v.7l-8.3 13.7 5.6 3.4 2.7-4.3V15l-2 3.1 2 1.3v1L123.2 1.3 115.5 14a1.5 1.5 0 0 0 0 1.2 4.4 4.4 0 0 0 1.1 1h.2v0L147 34.6a1 1 0 0 0 .7.2 2.4 2.4 0 0 0 .4 0 2.1 2.1 0 0 0 1.1-.7l5.9-10.5v1.7l-4.6 8.5-1 1.3h0a6.3 6.3 0 0 1-1.2.5 3.5 3.5 0 0 1-.6 0z"/>
    <g fill="#ededcf">
      <path d="M151 56.9a3.9 3.9 0 0 1-3.9-3.9 3.9 3.9 0 0 1 3.9-3.9 3.9 3.9 0 0 1 3.9 3.9 3.9 3.9 0 0 1-3.9 3.9z"/>
      <path fill="#d6d9e5" d="M151 49.3a3.7 3.7 0 1 0 0 7.4 3.7 3.7 0 0 0 0-7.4m0-.3a4 4 0 1 1 0 8 4 4 0 0 1 0-8z"/>
    </g>
    <path fill="rgba(255,125,59,0.15)" d="M59.5 0l22 12.8a6 6 0 0 1 1.7 3.1 9.3 9.3 0 0 1 0 3.6c-.1.7-31.8 53.8-33 54.9-1.5 1.1-.4.6-2 1a18.4 18.4 0 0 0-2.5.4c-1.7 0-4-1.8-7.5-3.8l-15-9.2-3.6-3L1 48.9V0z"/>
    <path fill="rgba(255,125,59,0.07)" d="M93.3 20.3l50.5 30.2a6.3 6.3 0 0 1 1.3 1.4c.3.5 0 2 .2 3a4 4 0 0 0 2.2 3 8 8 0 0 0 5.2.6 5 5 0 0 0 2.3-1.2V100H84.4L55.2 81.6a4.3 4.3 0 0 1-1.5-2c-.2-1-.7-2.6 0-4s32.6-54 32.6-54a8 8 0 0 1 .9-1.2c.4-.3 2 0 2.7-.2s.9-.9 1.5-.8a6.7 6.7 0 0 1 2 1zM155 0v42.4l-2.3 3.8a2.9 2.9 0 0 1-1.6 1.1c-1.2.3-1 0-1.7.2a2.2 2.2 0 0 0-1 .4 4.1 4.1 0 0 1-2.2.2L95 17.1a2.4 2.4 0 0 1-1.2-1.5 26.4 26.4 0 0 1-.9-3.2 5 5 0 0 1 .6-3c.7-1.5 5.4-9.4 5.4-9.4z"/>
  </g>
  <g filter="url(#school_b)">
    <path fill="#fff" d="M43 47a11 11 0 1 1-11 11 11 11 0 0 1 11-11z"/>
  </g>
  <g filter="url(#school_c)">
    <path fill="#fff" d="M43 47a11 11 0 1 1-11 11 11 11 0 0 1 11-11z"/>
  </g>
  <path fill="#f2af8b" d="M43 49a9 9 0 1 1-9 9 9 9 0 0 1 9-9z"/>
  <path fill="#fff" d="M39.6 58.6v2l3.4 1.8 3.4-1.9v-1.9L43 60.5zm3.4-5l-5.4 3 5.4 2.8 4.4-2.4v3.4h1v-4z"/>
  <g filter="url(#school_d)">
    <path fill="#fff" d="M66 10a11 11 0 1 1-11 11 11 11 0 0 1 11-11z"/>
  </g>
  <g filter="url(#school_e)">
    <path fill="#fff" d="M66 10a11 11 0 1 1-11 11 11 11 0 0 1 11-11z"/>
  </g>
  <path fill="#f2af8b" d="M66 12a9 9 0 1 1-9 9 9 9 0 0 1 9-9z"/>
  <path fill="#fff" d="M62.6 21.6v2l3.4 1.8 3.4-1.9v-1.9L66 23.5zm3.4-5l-5.4 3 5.4 2.8 4.4-2.4v3.4h1v-4z"/>
  <g>
    <g filter="url(#school_f)">
      <path fill="#fff" d="M93 55a11 11 0 1 1-11 11 11 11 0 0 1 11-11z"/>
    </g>
    <g filter="url(#school_g)">
      <path fill="#fff" d="M93 55a11 11 0 1 1-11 11 11 11 0 0 1 11-11z"/>
    </g>
    <path fill="#f2af8b" d="M93 57a9 9 0 1 1-9 9 9 9 0 0 1 9-9z"/>
    <path fill="#fff" d="M89.6 66.6v2l3.4 1.8 3.4-1.9v-1.9L93 68.5zm3.4-5l-5.4 3 5.4 2.8 4.4-2.4v3.4h1v-4z"/>
  </g>
</svg>
